<?xml version="1.0" encoding="utf-8"?>
<svg viewBox="0 0 961 712" fill="none" xmlns="http://www.w3.org/2000/svg">
  <rect x="2.25" y="498.25" width="211.504" height="211.504" rx="105.752" fill="#fff"/>
  <rect x="2.25" y="498.25" width="211.504" height="211.504" rx="105.752" stroke="#E4E4E7" stroke-width="4.5"/>
  <path d="M134.669 614.669h.053m-53.387-37.334h64a10.67 10.67 0 0 1 7.543 3.124 10.67 10.67 0 0 1 3.124 7.543v53.333a10.67 10.67 0 0 1-3.124 7.543 10.67 10.67 0 0 1-7.543 3.124H70.669a10.668 10.668 0 0 1-10.667-10.667v-74.666a10.67 10.67 0 0 1 10.667-10.667h74.666" stroke="#18181B" stroke-width="8.533" stroke-linecap="round" stroke-linejoin="round"/>
  <rect x="374.254" y="498.25" width="211.504" height="211.504" rx="105.752" fill="#fff"/>
  <rect x="374.254" y="498.25" width="211.504" height="211.504" rx="105.752" stroke="#E4E4E7" stroke-width="4.5"/>
  <path d="M506.673 614.669h.053m-53.387-37.334h64a10.67 10.67 0 0 1 7.543 3.124 10.67 10.67 0 0 1 3.124 7.543v53.333a10.67 10.67 0 0 1-3.124 7.543 10.67 10.67 0 0 1-7.543 3.124h-74.666a10.669 10.669 0 0 1-10.667-10.667v-74.666a10.669 10.669 0 0 1 10.667-10.667h74.666" stroke="#18181B" stroke-width="8.533" stroke-linecap="round" stroke-linejoin="round"/>
  <rect x="746.258" y="498.25" width="211.504" height="211.504" rx="105.752" fill="#fff"/>
  <rect x="746.258" y="498.25" width="211.504" height="211.504" rx="105.752" stroke="#E4E4E7" stroke-width="4.5"/>
  <path d="M878.676 614.669h.054m-53.387-37.334h64a10.67 10.67 0 0 1 7.543 3.124 10.67 10.67 0 0 1 3.124 7.543v53.333a10.67 10.67 0 0 1-3.124 7.543 10.67 10.67 0 0 1-7.543 3.124h-74.667a10.666 10.666 0 0 1-10.666-10.667v-74.666a10.666 10.666 0 0 1 10.666-10.667h74.667" stroke="#18181B" stroke-width="8.533" stroke-linecap="round" stroke-linejoin="round"/>
  <g filter="url(#a)">
    <rect x="354" width="256" height="256" rx="128" fill="#18181B"/>
    <rect x="356.667" y="2.667" width="250.666" height="250.666" rx="125.333" stroke="#E4E4E7" stroke-width="5.334"/>
    <path d="M 483.398 55.145 L 553.837 67.565 C 555.853 67.922 557.211 69.858 556.854 71.881 L 553.266 92.237 C 552.909 94.256 550.971 95.61 548.954 95.255 L 480.562 83.195 L 478.256 96.264 L 493.646 98.978 C 495.664 99.333 497.019 101.269 496.663 103.286 L 495.011 112.653 C 494.653 114.686 492.72 116.026 490.703 115.671 L 475.314 112.957 L 473.047 125.811 L 529.39 135.745 C 531.412 136.102 532.764 138.039 532.408 140.06 L 528.818 160.418 C 528.461 162.437 526.53 163.792 524.508 163.436 L 468.164 153.501 L 458.972 205.631 C 458.617 207.647 456.685 209.004 454.664 208.648 L 429.92 204.284 C 427.884 203.927 426.545 201.994 426.9 199.974 L 443.241 107.303 L 436.955 106.194 C 434.923 105.835 433.577 103.918 433.937 101.883 L 435.589 92.517 C 435.944 90.5 437.866 89.142 439.899 89.5 L 446.184 90.607 L 452.726 53.512 C 453.082 51.491 455.003 50.134 457.037 50.492 L 481.782 54.855 C 482.063 54.905 482.33 54.987 482.583 55.091 C 482.85 55.079 483.123 55.097 483.398 55.145 Z" style="stroke-width: 1; fill: rgb(255, 255, 255);"/>
  </g>
  <path d="M105.877 470.122a3.003 3.003 0 0 0 4.243 0l19.091-19.093a2.998 2.998 0 0 0 0-4.242 2.998 2.998 0 0 0-4.242 0l-16.971 16.97-16.97-16.97a3 3 0 1 0-4.243 4.242l19.092 19.093Zm5.121-5.247a3 3 0 1 0-6 0h6Zm-6-18.75a3 3 0 1 0 6 0h-6Zm6-6.25a3 3 0 1 0-6 0h6Zm-6-18.75a3 3 0 1 0 6 0h-6Zm6.214-7.541a3.001 3.001 0 0 0-5.972-.581l5.972.581Zm5.362-27.94a3 3 0 0 0 4.636 3.809l-4.636-3.809Zm10.877-2.432a3 3 0 1 0-3.809-4.636l3.809 4.636Zm23.55-15.97a3 3 0 0 0 .581 5.972l-.581-5.972Zm8.858 5.758a3 3 0 1 0 0-6v6Zm23.167-6a3 3 0 1 0 0 6v-6Zm7.722 6a3 3 0 1 0 0-6v6Zm23.167-6a3 3 0 1 0 0 6v-6Zm7.722 6a3 3 0 1 0 0-6v6Zm23.167-6a3 3 0 1 0 0 6v-6Zm7.722 6a3 3 0 1 0 0-6v6Zm23.167-6a3 3 0 1 0 0 6v-6Zm7.722 6a2.999 2.999 0 0 0 2.999-3c0-1.657-1.342-3-2.999-3v6Zm23.167-6a3 3 0 1 0 0 6v-6Zm7.722 6a3 3 0 0 0 0-6v6Zm23.166-6a3 3 0 0 0 0 6v-6Zm7.722 6a3 3 0 1 0 0-6v6Zm23.168-6a3 3 0 1 0 0 6v-6Zm7.722 6a3 3 0 0 0 0-6v6Zm23.166-6a3 3 0 0 0 0 6v-6Zm7.722 6a3 3 0 1 0 0-6v6Zm23.166-6a3 3 0 0 0 0 6v-6Zm8.86 5.758a3 3 0 0 0-.582-5.972l.582 5.972Zm23.548-15.97a3 3 0 0 0-.412 4.222 2.999 2.999 0 0 0 4.222.414l-3.81-4.636Zm10.878-2.432a3 3 0 0 0-4.636-3.809l4.636 3.809ZM110.998 468v-3.125h-6V468h6Zm0-21.875v-6.25h-6v6.25h6Zm0-25V418h-6v3.125h6Zm0-3.125c0-1.491.073-2.964.214-4.416l-5.972-.581a51.609 51.609 0 0 0-.242 4.997h6Zm10.212-28.547a45.332 45.332 0 0 1 6.241-6.241l-3.809-4.636a51.317 51.317 0 0 0-7.068 7.068l4.636 3.809Zm30.372-16.239a45.36 45.36 0 0 1 4.416-.214v-6c-1.685 0-3.352.082-4.997.242l.581 5.972Zm4.416-.214h3.861v-6h-3.861v6Zm27.028 0h7.722v-6h-7.722v6Zm30.889 0h7.722v-6h-7.722v6Zm30.889 0h7.722v-6h-7.722v6Zm30.889 0h7.722v-6h-7.722v6Zm30.889 0h7.722v-6h-7.722v6Zm30.888 0h7.722v-6h-7.722v6Zm30.89 0h7.722v-6h-7.722v6Zm30.888 0h7.722v-6h-7.722v6Zm30.888 0h3.862v-6h-3.862v6Zm3.862 0a51.63 51.63 0 0 0 4.998-.242l-.582-5.972a45.376 45.376 0 0 1-4.416.214v6Zm32.356-11.576a51.317 51.317 0 0 0 7.068-7.068l-4.636-3.809a45.229 45.229 0 0 1-6.242 6.241l3.81 4.636ZM849.886 470.122a3.004 3.004 0 0 0 4.244 0l19.092-19.093a3 3 0 1 0-4.243-4.242l-16.971 16.97-16.969-16.97a3.002 3.002 0 0 0-4.245 0 3.002 3.002 0 0 0 0 4.242l19.092 19.093ZM495.212 350.547a3 3 0 0 0-4.636 3.809l4.636-3.809Zm2.432 10.877a2.999 2.999 0 0 0 4.222-.414 3 3 0 0 0-.412-4.222l-3.81 4.636Zm27.94 5.362a3 3 0 0 0-.582 5.972l.582-5.972Zm8.222 6.214a3 3 0 0 0 0-6v6Zm22.834-6a3 3 0 1 0 0 6v-6Zm7.61 6a3 3 0 1 0 0-6v6Zm22.834-6a3 3 0 0 0 0 6v-6Zm7.612 6a3 3 0 1 0 0-6v6Zm22.835-6a3 3 0 0 0 0 6v-6Zm7.612 6a3 3 0 0 0 0-6v6Zm22.833-6a3 3 0 1 0 0 6v-6Zm7.61 6a3 3 0 1 0 0-6v6Zm22.834-6a3 3 0 0 0 0 6v-6Zm7.612 6a3 3 0 1 0 0-6v6Zm22.835-6a3 3 0 0 0 0 6v-6Zm7.612 6a3 3 0 0 0 0-6v6Zm22.833-6a3 3 0 1 0 0 6v-6Zm7.61 6a3 3 0 1 0 0-6v6Zm22.834-6a3 3 0 0 0 0 6v-6Zm7.612 6a3 3 0 1 0 0-6v6Zm22.835-6a3 3 0 0 0 0 6v-6Zm8.221 6.214a3 3 0 0 0 .582-5.972l-.582 5.972Zm27.941 5.362a2.999 2.999 0 0 0-4.222.414 3 3 0 0 0 .412 4.222l3.81-4.636Zm2.432 10.877a3 3 0 1 0 4.635-3.809l-4.635 3.809Zm15.969 23.55a3 3 0 0 0-5.972.581l5.972-.581Zm-5.758 8.122a3 3 0 1 0 6 0h-6Zm6 18.75a3 3 0 0 0-6 0h6Zm-6 6.25a3 3 0 1 0 6 0h-6Zm6 18.75a3 3 0 0 0-6 0h6ZM490.576 354.356a51.317 51.317 0 0 0 7.068 7.068l3.81-4.636a45.229 45.229 0 0 1-6.242-6.241l-4.636 3.809Zm34.426 18.402A51.63 51.63 0 0 0 530 373v-6c-1.49 0-2.964-.072-4.416-.214l-.582 5.972ZM530 373h3.806v-6H530v6Zm26.64 0h7.61v-6h-7.61v6Zm30.444 0h7.612v-6h-7.612v6Zm30.447 0h7.612v-6h-7.612v6Zm30.445 0h7.61v-6h-7.61v6Zm30.444 0h7.612v-6h-7.612v6Zm30.447 0h7.612v-6h-7.612v6Zm30.445 0h7.61v-6h-7.61v6Zm30.444 0h7.612v-6h-7.612v6Zm30.447 0h3.805v-6h-3.805v6Zm3.805 0c1.49 0 2.964.072 4.416.214l.582-5.972a51.63 51.63 0 0 0-4.998-.242v6Zm28.547 10.212a45.34 45.34 0 0 1 6.242 6.241l4.635-3.809a51.31 51.31 0 0 0-7.067-7.068l-3.81 4.636Zm16.239 30.372a45.36 45.36 0 0 1 .214 4.416h6c0-1.685-.082-3.352-.242-4.997l-5.972.581Zm.214 4.416v3.125h6V418h-6Zm0 21.875v6.25h6v-6.25h-6Zm0 25V468h6v-3.125h-6ZM485.002 272a3 3 0 0 0-6 0h6Zm-5.122 198.122a3.004 3.004 0 0 0 4.244 0l19.092-19.093a3 3 0 0 0-4.244-4.242l-16.97 16.97-16.97-16.97a3 3 0 0 0-4.244 4.242l19.092 19.093Zm-.878-194.039a3 3 0 0 0 6 0h-6Zm6 24.5a3 3 0 0 0-6 0h6Zm-6 8.167a3 3 0 0 0 6 0h-6Zm6 24.5a3 3 0 0 0-6 0h6Zm-6 8.167a3 3 0 0 0 6 0h-6Zm6 24.5a3 3 0 0 0-6 0h6Zm-6 8.166a3 3 0 0 0 6 0h-6Zm6 24.5a3 3 0 0 0-6 0h6Zm-6 8.167a3 3 0 0 0 6 0h-6Zm6 24.5a3 3 0 0 0-6 0h6Zm-6 8.167a3 3 0 0 0 6 0h-6Zm6 24.5a3 3 0 0 0-6 0h6Zm-6-191.917v4.083h6V272h-6Zm0 28.583v8.167h6v-8.167h-6Zm0 32.667v8.167h6v-8.167h-6Zm0 32.667v8.166h6v-8.166h-6Zm0 32.666v8.167h6v-8.167h-6Zm0 32.667v8.167h6v-8.167h-6Zm0 32.667V468h6v-4.083h-6Z" fill="#020617" opacity=".5"/>
  <defs>
    <filter id="a" x="322.395" y="0" width="319.21" height="319.21" filterUnits="userSpaceOnUse" color-interpolation-filters="sRGB">
      <feFlood flood-opacity="0" result="BackgroundImageFix"/>
      <feColorMatrix in="SourceAlpha" values="0 0 0 0 0 0 0 0 0 0 0 0 0 0 0 0 0 0 127 0" result="hardAlpha"/>
      <feMorphology radius="7.901" in="SourceAlpha" result="effect1_dropShadow_7364_72069"/>
      <feOffset dy="31.605"/>
      <feGaussianBlur stdDeviation="19.753"/>
      <feColorMatrix values="0 0 0 0 0 0 0 0 0 0 0 0 0 0 0 0 0 0 0.1 0"/>
      <feBlend in2="BackgroundImageFix" result="effect1_dropShadow_7364_72069"/>
      <feColorMatrix in="SourceAlpha" values="0 0 0 0 0 0 0 0 0 0 0 0 0 0 0 0 0 0 127 0" result="hardAlpha"/>
      <feMorphology radius="9.481" in="SourceAlpha" result="effect2_dropShadow_7364_72069"/>
      <feOffset dy="12.642"/>
      <feGaussianBlur stdDeviation="7.901"/>
      <feColorMatrix values="0 0 0 0 0 0 0 0 0 0 0 0 0 0 0 0 0 0 0.1 0"/>
      <feBlend in2="effect1_dropShadow_7364_72069" result="effect2_dropShadow_7364_72069"/>
      <feBlend in="SourceGraphic" in2="effect2_dropShadow_7364_72069" result="shape"/>
    </filter>
  </defs>
</svg>