<?xml version="1.0" encoding="utf-8"?>
<svg version="1.1" viewBox="0 0 2048 2048" width="2048" height="2048" xmlns="http://www.w3.org/2000/svg" xmlns:bx="https://boxy-svg.com">
  <defs>
    <bx:export>
      <bx:file format="svg"/>
    </bx:export>
  </defs>
  <path d="m0 0h44l26 4 25 7 20 8 21 11 9 6 16 12 14 13 14 14 13 17 8 13 12 23 10 28 5 23 2 15 1 17v11l-3 29-5 22-9 25-8 16-12 20-13 16-11 12-12 12-10 8h-2v2l-11 7-9 6-16 9-17 7-20 7-28 6-26 2h-16l-26-3-22-5-27-9-17-8-17-10-19-14-11-10-8-7-13-14-6-8-7-10-10-17-8-16-7-19-4-13-4-20-2-16v-29l3-23 5-22 10-27 14-27 13-18 7-8 10-12 8-7 10-9 14-10 11-7 18-10 14-6 14-5 24-6z" fill="#B56705" transform="translate(1e3 812)"/>
  <path transform="translate(1e3 979)" d="m0 0h41l27 3 24 6 16 6 3 5 5 20 8 17 7 9 7 8 5 4-1 3h-10l-8-1 3 9 5 13 2 12-1 8-5-2-5-3h-4l-4 18-5 12-8 12-10 9h-3l-3-15-2-2-8 16-8 11-9 8-6 2-2-16-1-2-7 13-7 9-11 10-4 2-5-1-13-12-7-9-6-11-2-1-1 8v9l-3 1-8-6-9-9-8-14-3-9-4 4-2 15-6-3-7-7-8-12-5-14-4-17-6 2-4 3-4-1v-8l2-11 6-14 1-6h-18l1-4 8-8 8-11 9-17 4-14 3-10 6-4 11-4 26-6z" fill="#CC7405"/>
  <path transform="translate(938,858)" d="M 0.305 2.288 L 7 1 L 6.236 8.617 L 6 15 L 5.379 20.987 L 6.383 28.549 L 7.827 35.085 L 11 41 L 19 48 L 24 46 L 35 38 L 49 31 L 66 26 L 70.843 23.018 L 75.788 20.132 L 97 20 L 102 23 L 108 27 L 121 31 L 133 36 L 144 43 L 149 47 L 154 46 L 161 40 L 164.36 31.846 L 166.541 23.481 L 168.411 14.797 L 168.674 9.177 L 167.069 0.914 L 175.074 4.89 L 182.014 9.789 L 188.719 15.535 L 192.816 21.352 L 197 28 L 199 37 L 200 51 L 198 63 L 191 76 L 182 85 L 179 87 L 182 99 L 184 103 L 186 103 L 190 113 L 190 131 L 187 137 L 188 145 L 195 166 L 201 176 L 209 186 L 221 196 L 223 199 L 222 205 L 217 209 L 211 212 L 205 213 L 209 234 L 209 247 L 206 258 L 202 260 L 194 253 L 192 253 L 186 269 L 178 282 L 169 293 L 157 302 L 151 305 L 147 304 L 147 302 L 142 303 L 137 309 L 135 309 L 135 311 L 121 321 L 117 323 L 111 323 L 108 321 L 98 330 L 87 336 L 80 334 L 71 328 L 63 321 L 61 323 L 54 322 L 44 316 L 31 305 L 28 302 L 26 302 L 23 305 L 14 302 L 4 294 L -6 284 L -15 270 L -21 253 L -25 253 L -28.542 256.812 L -32 260.281 L -35 256 L -37 248 L -37 228 L -33 212 L -42 211 L -50 206 L -52 201 L -48 195 L -35 183 L -26 170 L -21 159 L -16 144 L -16 137 L -19 131 L -19 116 L -16 106 L -11 101 L -7 88 L -11 84 L -19 77 L -25 67 L -28 58 L -28 41 L -25 28 L -21 20 L -13 10 L -5.934 4.97 L 0.305 2.288 Z M 66 121 L 39 124 L 13 130 L -2 136 L -5 140 L -10 159 L -18 176 L -26 187 L -35 197 L -37 199 L -37 202 L -19 202 L -21 210 L -27 226 L -28 233 L -28 241 L -24 242 L -16 237 L -14 237 L -9 257 L -4 270 L 5 282 L 13 289 L 16 290 L 18 275 L 22 271 L 25 280 L 31 291 L 40 301 L 48 308 L 52 309 L 53 307 L 53 297 L 54 291 L 57 294 L 64 306 L 73 316 L 82 324 L 87 325 L 93 321 L 105 310 L 112 299 L 116 291 L 118 297 L 119 309 L 125 307 L 136 297 L 145 283 L 150 272 L 152 274 L 155 289 L 159 288 L 169 279 L 177 266 L 182 253 L 185 238 L 190 239 L 197 243 L 199 243 L 200 235 L 197 220 L 190 203 L 190 201 L 198 202 L 208 202 L 208 198 L 200 191 L 192 181 L 183 164 L 178 145 L 175 137 L 167 133 L 147 127 L 134 124 L 107 121 L 66 121 Z" style="fill: rgb(34, 44, 25);"/>
  <path transform="translate(1017,948)" d="m0 0h13l35 3 26 6 21 8 6 4 1 5v12l-2 1-30-10-20-4-19-2h-50l-29 4-23 6-13 5-4 1v-16l2-4 9-4 15-5 23-6 16-2z" style="fill: rgb(51, 89, 65);"/>
  <path transform="translate(1044,894)" d="m0 0 11 3 12 5 11 7 12 12 9 11 7 15 1 7-30-8-31-5-1-1-1-27z" style="fill: rgb(51, 89, 65);"/>
  <path d="M 1000.13 812.207 L 1044.14 812.207 L 1070.14 816.207 L 1095.14 823.207 L 1115.14 831.207 L 1136.14 842.207 L 1145.14 848.207 L 1161.14 860.207 L 1175.14 873.207 L 1189.14 887.207 L 1202.14 904.207 L 1210.14 917.207 L 1222.14 940.207 L 1232.14 968.207 L 1237.14 991.207 L 1239.14 1006.21 L 1240.14 1023.2 L 1240.14 1034.2 L 1237.14 1063.2 L 1232.14 1085.2 L 1223.14 1110.2 L 1215.14 1126.2 L 1203.14 1146.2 L 1190.14 1162.21 L 1179.14 1174.21 L 1167.14 1186.21 L 1157.304 1194.388 L 1155.14 1196.21 L 1144.14 1203.21 L 1135.14 1209.21 L 1119.14 1218.21 L 1102.14 1225.21 L 1082.14 1232.21 L 1054.14 1238.21 L 1028.14 1240.21 L 1012.13 1240.21 L 986.134 1237.21 L 964.134 1232.21 L 937.134 1223.21 L 920.134 1215.21 L 903.134 1205.21 L 884.134 1191.21 L 873.134 1181.21 L 865.134 1174.21 L 852.134 1160.21 L 846.134 1152.21 L 839.134 1142.2 L 829.134 1125.2 L 821.137 1109.2 L 814.137 1090.2 L 810.137 1077.2 L 806.137 1057.2 L 804.137 1041.2 L 804.137 1012.2 L 807.137 989.207 L 812.137 967.207 L 822.137 940.207 L 836.134 913.207 L 849.134 895.207 L 856.134 887.207 L 866.134 875.207 L 874.134 868.207 L 884.134 859.207 L 898.134 849.207 L 909.134 842.207 L 927.134 832.207 L 941.134 826.207 L 955.134 821.207 L 979.134 815.207 L 1000.13 812.207 Z M 1002.13 824.207 L 977.134 828.207 L 956.134 834.207 L 935.134 842.207 L 916.134 852.207 L 895.134 866.207 L 883.134 877.207 L 875.134 884.207 L 872.933 886.384 L 871.134 888.207 L 853.134 910.207 L 846.134 921.207 L 834.134 943.207 L 827.134 961.207 L 822.137 978.207 L 818.137 997.207 L 816.137 1023.2 L 817.137 1046.2 L 820.137 1065.2 L 826.134 1087.2 L 834.134 1107.2 L 843.134 1126.2 L 855.134 1143.2 L 863.134 1153.21 L 874.134 1165.21 L 887.134 1178.21 L 903.134 1190.21 L 918.134 1200.21 L 934.134 1208.21 L 948.134 1214.21 L 967.134 1220.21 L 989.134 1225.21 L 1002.13 1227.21 L 1027.14 1228.21 L 1051.14 1226.21 L 1071.14 1222.21 L 1091.14 1216.21 L 1111.14 1208.21 L 1133.14 1196.21 L 1145.14 1187.21 L 1159.14 1176.21 L 1178.14 1157.21 L 1187.14 1146.2 L 1195.14 1135.2 L 1203.14 1122.2 L 1215.14 1096.2 L 1222.14 1075.2 L 1226.14 1054.2 L 1227.14 1044.2 L 1227.14 1007.21 L 1224.14 987.207 L 1218.14 965.207 L 1211.14 946.207 L 1203.14 930.207 L 1194.14 914.207 L 1182.14 898.207 L 1175.14 891.207 L 1168.14 883.207 L 1157.14 872.207 L 1141.14 860.207 L 1123.14 849.207 L 1098.14 837.207 L 1072.14 829.207 L 1051.14 825.207 L 1043.14 824.207 L 1002.13 824.207 Z" fill="#1C3122" style="stroke-width: 1;"/>
  <path transform="translate(656,1566)" d="m0 0h1l-1 9-9 23-4 11-7 12-3 7-8 16-9 17-5 11-10 17-11 20-10 16-9 15-7 11-16 24-11 15-7 11-12 17-8 11-13 17-10 14-10 13-10 12-10 13-9 11-7 7-6 9-10 12-7 9-9 10-18 22-13 14-7 8-9 10-1 2h-2l-2 4-7 8-5 6-5 5-3 4h-2l-1 3h-2l-2 4-2 2h-79l3-6 8-11 12-19 10-15 8-11 19-28 4-5 4-7 12-16 4-6 14-19 4-7h2l2-5 8-11 7-10 8-10 28-38 8-11 22-28 27-33 11-13 7-7 9-11 9-10 4-5h2l2-4 9-10h2l2-4 11-11 7-8 4-2v-2h2l2-4 6-5 4-5h2v-2h2v-2l5-5 13-12 16-15 10-9 11-8 5-5 20-16z" fill="#173023"/>
  <path transform="translate(164)" d="m0 0h54l8 7 5 5 12 11 12 12 7 6 3 3v2l4 2 19 19 8 7 5 5 10 11 2 1v2l3 1 4 5 5 4 7 8 26 26v2l4 2 15 16 11 12 24 26v2l3 1 7 8 18 20 7 8 13 15 9 11 12 14 8 10 11 14 10 13 11 14 14 19 13 18 7 11 10 14 12 19 5 7 6 12 10 17 14 26 7 16 3 9-5-2-15-9-11-8-17-13-16-12-10-9-10-8-14-12-8-7-13-12-8-7-6-5-6-7-8-7-16-15-33-33-9-11-11-11-7-8-10-11-7-8-9-10-6-7v-2h-2l-8-10-10-11-9-11-11-13-8-10-10-12-9-11-8-10-21-27-20-25-9-12v-2l-4-2-5-8-9-12-13-16-13-19-8-10-10-15-10-13-6-9z" fill="#183023"/>
  <path transform="translate(1576)" d="m0 0h82l-3 9-8 14-10 19-6 11-8 13-4 8-11 18-6 12-5 8-21 35-17 26-10 15-12 19-14 21-11 16-12 17-14 18-10 14-10 13-7 9-13 16-14 17-12 14-9 11-5 4-9 11-5 6-6 5-7 8-12 11-15 15-13 11-4 2v2l-11 8h-3l4-16 14-43 14-33 9-20 6-14 8-16 8-17 5-8 6-12 6-11 13-23 7-13 10-16 6-10 1-3 3-3 8-14 6-9 9-14 6-10 7-10 20-30 6-8 6-9 6-10h2l2-5 7-10 7-11 5-6 10-16 5-5 12-17 8-10z" fill="#173023"/>
  <path transform="translate(2047,457)" d="m0 0h1v89l-14 8-16 9-32 16-15 8-38 19-6 1v2l-20 9-16 8-43 19-17 7-23 9-31 11-19 7-27 9-20 7-19 5-14 4-8 3-28 6-29 6-12 2 2-5 9-9 11-9 14-12 9-7 11-8 23-16 14-10 10-6 9-6 29-19 10-6 13-8 20-12 9-5 14-8 22-12 10-6 14-7 13-7 19-10 16-8 27-13 16-8 19-9 16-8 20-9 23-10z" fill="#173023" id="object-0"/>
  <path transform="translate(479,1391)" d="m0 0h4l-2 4-9 10-7 8-10 10-7 8-15 15-8 7-5 6-8 7-10 9-5 5h-2v2l-10 8-12 11-6 5h-2v2h-2l-1 3-11 8-5 4-5 5-14 11-11 8-14 11-16 13-7 5h-2v2l-11 7-6 5h-2v2l-10 6-16 12-14 9-5 4-14 9-10 7-18 11-8 6-15 9-30 20-7 4-11 7-5 3-19 12-10 7-10 5-9 6-13 8-14 8-8 5-10 6-2 1v-63l11-9 17-14 11-7 12-10 9-7 15-11 11-9 5-3 40-30 18-13 11-8 21-14 13-9 18-12 10-7 11-7 15-10 10-6 39-24 9-5 20-12 11-6 13-8 14-8 40-20 15-8 20-9 12-6 12-4 10-5z" fill="#183023"/>
  <path transform="translate(1560,1347)" d="m0 0 27 6 36 12 13 4 10 4 21 8 15 6 26 11 20 9 26 12 2 1v2l6 1 19 9 17 9 28 14 23 13 22 12 7 5 12 6 16 10 17 10 19 12 13 8 8 6 14 8 5 3v2l5 2 16 11 6 4v2l6 2 8 6 4 2v2l5 2 15 10 1 1v53l-9-3-35-17-14-6-16-8-17-8-19-10-19-9-16-8-10-6-9-4-42-23-8-4-24-14-24-13-25-15-9-6-9-5-14-9-11-7-24-16-11-8-12-8-10-7-16-12-15-12-14-11-10-8-10-7-10-9-10-8-14-14z" fill="#183023"/>
  <path transform="translate(0,342)" d="m0 0 16 8 23 12 22 12 10 6 16 8 15 8 5 3 19 11 9 5 10 6 14 8 17 10 7 4 11 7 15 9 31 19 10 7 13 8 12 8 22 15 12 8 9 7 10 7 28 21 15 12 14 11 15 13 11 9 15 13 7 7 10 8 14 14 7 8 5 6-2 1-15-4-19-7-21-8-43-19-12-6-11-4-23-12-16-8-18-10-5-1-25-14-16-8-16-10-14-7-20-12-7-4-20-12-17-11-39-24-12-9-8-4-12-8-22-15-11-7-13-9-18-12-14-11z" fill="#183023"/>
  <path transform="translate(2047,204)" d="m0 0h1v62l-15 13-9 7-3 1-1 3-5 3-8 7-12 9-9 8-6 4-10 9-14 10-17 12-18 14-6 4h-2v2l-16 11-5 4-16 10-13 10-15 10-19 13-23 15-4 2-3 3-16 9-14 9-7 5-12 6-11 7-11 6-6 3h-2v2l-8 4-13 7-19 10-23 12-22 10-26 11-3 1 1-4 12-13 9-11 11-11 7-8 9-8 3-4h2l2-4 5-3 12-12 8-7 8-8 11-9 11-10 11-9 10-9 14-11 10-8 11-9 39-30 20-15 14-10 10-8 5-3 16-12 6-4 16-11h3l2-4 11-7 11-8 5-3 19-13 18-11 16-11 11-7h2v-2l14-8 12-8 11-7 7-5z" fill="#183023"/>
  <path transform="translate(1334,1608)" d="m0 0 4 2 6 5 7 8 12 13 4 4v2h2l9 11 11 14 10 13 6 8 10 13 11 16 9 14 9 13 9 14 7 11 15 25 10 16 6 11 11 20 9 16 14 27 4 8 10 19 13 27 9 19 15 33 6 14 4 8 12 28 2 5v3h-39l-12-15-11-15-10-14-11-15-7-12-12-17-8-12-14-22-14-23-9-14-15-27-13-23-18-34-9-19-10-19-11-26-9-21-10-25-12-36-7-22-5-23z" fill="#183023"/>
  <path transform="translate(184,1008)" d="m0 0h66l43 3 40 4 22 3 12 3 10 2 3 2-1 3-15 7-26 10-35 11-9 3-13 4-25 6-28 7-29 6-36 7-36 6-44 6-43 5-26 2h-14v-83l8-2 50-6 69-6z" fill="#183023"/>
  <path transform="translate(0,692)" d="m0 0 37 9 38 10 12 3 26 8 41 12 8 3 36 12 36 13 13 5 13 6 17 7 15 7 26 12 26 13v2l5 1 17 10 11 7 4 4-6 2h-46l-44-3-29-4-58-9-45-9-54-12-51-13-27-8-20-6-1-1z" fill="#173023"/>
  <path transform="translate(1653,1192)" d="m0 0 36 1 36 4 56 9 26 5 41 9 29 7 40 11 27 8 19 6 26 8 30 11 24 9 5 2v74l-9-2-28-7-19-6-22-7-43-14-16-5-21-8-15-5-29-11-27-11-24-10-28-13-17-7-19-10-16-8-16-9-12-6-8-5-12-7-12-9-3-3z" fill="#173023"/>
  <path transform="translate(791,1648)" d="m0 0h1v26l-3 27-8 47-8 40-8 36-8 30-8 27-12 36-10 28-7 17-4 11-11 27-13 31-9 17h-66l3-12 18-58 7-20 12-35 6-15 5-14 12-30 12-29 6-14 15-33 5-10 11-23 10-21 18-34 10-18 10-15 8-11z" fill="#183023"/>
  <path transform="translate(602)" d="m0 0h70l3 8 8 25 9 28 11 38 11 39 13 51 8 37 8 41 4 26 7 56 1 14 1 37h-3l-8-11-12-22-6-10-8-17-8-16-11-24-13-30-6-14-10-25-12-31-12-36-9-28-5-17-8-29-7-25-5-22-7-24-4-14z" fill="#173023"/>
  <path transform="translate(395,1229)" d="m0 0 2 1-9 9-10 6-8 7-9 6-11 8-10 7-11 7-5 4-11 6-19 12-16 9h-2v2l-9 5-23 13-25 13-19 10-46 23-9 4h-3v2l-12 5-47 21-17 7-16 6-13 6-7 3-10 3-20 8v-68l32-16 44-21 21-9 31-14 8-3 26-11 31-12 23-8 10-4 42-15 24-7 30-9 14-4 28-6 16-4z" fill="#183023"/>
  <path transform="translate(1050)" d="m0 0h81l-3 31-6 45-4 21-4 24-8 40-8 36-7 26-3 12-9 31-17 51-6 17-9 19-2 5-4 7-2-1-5-22-2-17-3-47v-82l3-62 4-40 5-38 8-51z" fill="#173023"/>
  <path transform="translate(1141,1683)" d="m0 0 4 2 7 12 9 19 8 16 7 15 11 26 14 37 6 17 10 28 13 43 15 57 6 24 11 50 3 14v5h-77l-10-38-13-52-11-61-7-50-4-33-3-36-1-25v-60z" fill="#183023"/>
  <path transform="translate(2045,745)" d="m0 0h3v65l-27 8-23 6-65 13-57 9-48 6-49 4-43 2h-75l-7-1v-2l14-8 27-12 30-11 21-7 20-7 25-8 32-9 35-9 37-9 41-9 62-12z" fill="#183023"/>
  <path transform="translate(957,1688)" d="m0 0 2 2 4 16 3 24 2 37v84l-2 40-4 45-5 39-7 50-4 23h-75l2-27 8-54 11-63 6-28 12-48 8-28 5-20 4-13 8-25 8-22 8-18z" fill="#183023"/>
  <path transform="translate(1951)" d="m0 0h37l-6 9-5 6-9 11-8 10-9 11-11 12-12 16-12 14-1 2h-2l-2 4-9 11-6 7-2 3h-2l-2 4-3 1-2 4-11 12-7 8-24 26-13 13-1 2h-2l-2 4-14 14h-2l-1 3-8 7-22 22h-2l-1 3-8 7-11 9-9 8-5 5-9 8h-2v2l-11 9-14 13-11 9-14 12-11 9-16 13-9 7-14 10-11 8-10 7-13 9-2-1v-2h2l1-4 9-15 8-10 11-15 14-19 11-14 9-11 9-10 7-8 12-14 9-10 7-8 11-12 7-8 5-5 11-12 7-7 9-11 8-7 7-8 7-7h2l2-4 4-5 8-7 9-9h2v-2l8-7 9-10 8-7 10-10 8-7 6-7 8-7h2v-2l8-7h2v-2l8-7 16-15 8-7 5-5h2l2-4 10-9 14-12 11-11h2z" fill="#183023"/>
  <path transform="translate(1924,974)" d="m0 0h96l28 1v62l-19 1-69 2h-77l-52-3-43-4-42-5-17-3-28-6-31-7-2-3 23-7 42-9 27-5 19-3 57-6 44-3z" fill="#183024"/>
  <path transform="translate(0,103)" d="m0 0 5 2 6 5 14 10 8 6 20 14v2l5 1v2l5 2 12 10 16 11 14 11 18 14 10 7 15 12v2l5 2 10 8 14 11 13 11 6 4 11 10 9 7 1 3 4 1 8 8 11 9 9 8 8 7 8 8 8 7 7 7 2 1v2l4 2 32 32 14 15 4 5 5 5 11 12 8 10 9 11 7 9 1 4-9-4-15-8-11-6-17-10-30-20-11-7-15-11-13-9-19-13-15-12-11-8-14-12-11-8-13-10-8-7-10-8-11-9-15-13-12-11-11-9-15-13-11-11-8-7-13-11-4-3v-2l-4-2-17-16-10-9-17-17-7-6z" fill="#183023"/>
  <path transform="translate(407,1636)" d="m0 0h2l-1 6-8 15-12 19-14 19-8 12-10 13-9 11-7 9h-2l-2 4-11 14-9 10-7 7-7 8-3 4h-2l-2 4-4 5-8 7-12 13-7 8-9 9h-2v2l-4 4-7 8-10 9-5 5-8 7h-2l-2 4-5 5-3 1v2l-7 6-3 5-6 4-8 7h-2l-2 4-12 11-5 5-21 18h-2l-2 4-10 8-10 9-11 9-10 8-9 7-11 9-14 9-1-2 11-19 7-10 8-11 9-12 20-26 14-18 14-17 12-14 9-11 9-10 1-2h2l2-4 12-14h2l2-4 13-14 8-10 14-14 7-8 14-15 8-7 5-5 12-13 8-8 10-8 10-10h2l2-4 11-10 8-6 10-9 11-9 12-10 13-10 15-11 11-8z" fill="#183023"/>
  <path transform="translate(851)" d="m0 0h57l2 19 5 49 3 39 1 26v95l-3 35-3 32-4 24-3 4-2-5-5-17-5-16-6-24-6-26-5-21-4-21-7-44-4-24-5-43-3-43-2-19z" fill="#173023"/>
  <path transform="translate(1317)" d="m0 0h51l-1 7-18 53-4 12-10 24-6 16-12 29-4 10-9 20-4 10-5 10-5 11-7 15-8 16-7 13-13 23-7 13-10 17-7 8h-1v-11l5-30 5-25 7-31 6-21 8-31 10-30 3-12 4-13 4-9 5-14 4-13 6-16 7-17 4-13 4-10 4-7z" fill="#183023"/>
  <path transform="translate(1197,1212)" d="m0 0 6 1 20 11 22 14 15 12 9 7 13 11 12 11 8 7 12 11 7 7 8 7 15 15 7 8 15 15 7 8 10 11 9 11 10 12 9 11 11 14 10 14 8 12v3l-4-2-15-10-16-12-17-12-11-9-10-8-12-9-42-36-12-11-8-7-10-10-8-7v-2h-2v-2l-4-2-14-15-11-12-9-11-13-16-10-14-9-14-5-10z" fill="#1A3023"/>
  <path transform="translate(1541,775)" d="m0 0 1 2-18 13-22 15-15 10-16 10-24 14-22 12-34 18-34 16-19 8-20 8-33 11-25 6-11 2h-4l2-4 10-10 19-14 15-10 15-9 27-15 17-9 16-8 33-15 36-15 29-11 35-13z" fill="#1A3023"/>
  <path transform="translate(882,1232)" d="m0 0h1l-1 8-8 21-11 21-12 19-11 16-14 19-14 17-9 11-13 14-7 8-10 11-13 13-7 8-18 18-8 7-13 13-13 12-8 7-10 8v-3l10-18 6-10 8-13 11-18 10-15 13-19 12-17 11-15 13-18 13-16 9-11 11-12 7-8 15-16 8-8 8-7 11-10 10-8z" fill="#1A3023"/>
  <path transform="translate(1321,544)" d="m0 0 1 2-16 35-20 40-12 22-11 19-6 11-10 17-9 14-11 17-11 16-14 18-16 21-11 13-10 10-6 7-14 11-7 5-1-4 9-27 12-26 14-24 8-14 9-14 14-21 10-14 8-11 10-13 14-19 12-15 9-11 11-14 11-13 9-11 11-12 7-8z" fill="#1A3023"/>
  <path transform="translate(689,1025)" d="m0 0h35l25 2 21 3 8 2v2l-24 9-17 5-34 7-24 4-40 5-37 2h-85l-36-2-21-2v-2l36-9 36-7 41-7 35-5 50-5z" fill="#1A3023"/>
  <path transform="translate(1264,1094)" d="m0 0h23l35 5 30 6 42 11 50 16 18 7 24 9 21 9 33 15 17 8 19 10v2l-11-1-68-13-40-9-43-11-21-6-41-14-23-9-22-10-16-8-19-10-8-6z" fill="#1A3023"/>
  <path transform="translate(470,881)" d="m0 0h11l20 2 54 8 37 7 37 8 36 9 30 9 29 10 25 11 16 8 10 6 4 4-2 1h-28l-33-4-35-6-38-9-28-8-29-9-42-15-28-11-15-6-25-11-6-3z" fill="#1A3023"/>
  <path transform="translate(1070,467)" d="m0 0h1l1 11v97l-3 49-5 44-6 34-6 27-7 24-8 23-5 10-2 1-3-13-1-15v-49l3-36 5-38 6-35 11-57 7-31 10-42z" fill="#193023"/>
  <path transform="translate(1068,1275)" d="m0 0 4 4 9 16 11 25 12 36 9 36 8 37 7 40 7 50 4 34 2 30-2 2-11-28-6-18-7-20-14-42-11-40-7-25-8-36-6-38-2-20v-42z" fill="#1A3023"/>
  <path transform="translate(664,606)" d="m0 0h2v3l4 2 11 8 6 4v2l4 2 10 9 10 8 15 14 8 7 10 10 8 7 16 16 7 8 17 17 9 11 7 7 9 11 13 16 15 20 14 21 11 21 2 6-4-1-15-10-12-9-13-10-13-12-8-7-30-30-7-8-9-10-9-11-12-14-10-13-14-18-14-19-11-15-11-16-12-19-4-6z" fill="#193023"/>
  <path transform="translate(814,1168)" d="m0 0 3 1-12 14-16 15-8 7-14 12-14 11-16 12-13 9-14 10-30 18-23 14-27 15-21 12-16 8-15 9-17 8-2-1 27-27 8-7 11-10 14-11 13-11 13-10 16-12 18-13 17-12 15-9 14-9 15-9 22-12 22-11 17-7z" fill="#1A3023"/>
  <path transform="translate(831,501)" d="m0 0 3 4 12 25 7 17 6 13 12 31 14 39 9 28 10 33 10 41 4 21 4 31 1 18-3-1-10-16-8-15-8-18-10-24-12-36-14-51-12-51-9-45-4-22-2-17z" fill="#1A3023"/>
  <path transform="translate(934,1263)" d="m0 0h2v18l-3 17-6 28-8 29-9 26-11 27-16 36-16 34-18 36-12 21-7 12-1-3 15-63 12-41 8-25 11-33 10-26 9-21 12-26 13-24 12-18z" fill="#1A3023"/>
  <path transform="translate(1230,1152)" d="m0 0 12 2 24 7 28 11 20 9 19 9 22 12 18 10 14 9 11 7 16 10 10 7 18 13 9 7 16 12 14 12 6 5-1 2-37-15-24-11-20-9-21-10-16-8-19-9-22-12-27-15-17-11-11-7-19-14-9-8-8-7z" fill="#1A3023"/>
  <path transform="translate(998,1278)" d="m0 0 3 3 2 18v48l-5 50-6 36-7 34-8 36-7 27-8 29-4 10h-1v-60l2-39 5-55 5-39 4-21 9-37 6-18 7-16z" fill="#1A3023"/>
  <path transform="translate(556,745)" d="m0 0 5 1 31 13 30 14 17 8 16 8 19 10 22 12 7 4 22 13 9 6 9 5 5 3 4 4 12 8 11 9 10 8 10 9 8 7 9 9v2l-12-3-29-11-30-14-16-8-21-11-19-11-44-28-10-7-17-12-17-13-13-10-17-14-6-5z" fill="#1A3023"/>
  <path transform="translate(776,1108)" d="m0 0h7l-5 5-8 7-18 12-19 11-22 12-23 11-30 13-16 6-27 10-37 12-31 9-18 5-3-1 7-6 15-9 18-11 14-8 16-9 22-12 32-16 26-11 25-10 26-8 23-7z" fill="#1A3023"/>
  <path transform="translate(1523,915)" d="m0 0h23l-3 2-26 10-38 12-34 10-39 9-38 7-31 4-30 2h-40l-2-2 25-12 22-8 30-8 26-6 44-8 44-6 41-4z" fill="#1A3023"/>
  <path transform="translate(1142,1249)" d="m0 0 4 2 14 14 7 8 14 18 13 20 12 20 14 26 8 15 11 23 11 24 13 30 13 34-1 2-14-17-9-13-14-20-12-17-9-14-13-19-10-15-15-26-10-18-12-25-10-26-4-15z" fill="#1A3022"/>
  <path transform="translate(1361,1012)" d="m0 0h74l39 2 41 4 36 5 6 1-3 2-36 5-51 5-33 2h-87l-28-2-31-4-17-4v-2l12-4 26-5 23-3z" fill="#1A3123"/>
  <path transform="translate(1471,697)" d="m0 0 3 1-8 7-5 6h-2l-2 4-16 15-11 9-11 10-11 9-13 11-11 8-12 9-11 8-18 12-17 11-13 8-25 14-32 15-7 3-3-1 12-15h2v-2l4-4h2v-2h2v-2l11-9 10-9 11-9 15-12 11-8 20-14 21-14 19-12 20-12 17-10 26-14z" fill="#1A3022"/>
  <path transform="translate(959,519)" d="m0 0 2 4 9 49 7 46 5 43 2 28v48l-3 31-2 4-7-19-6-26-4-28-4-36-2-37v-68l2-37z" fill="#1A3023"/>
  <path transform="translate(1188,534)" d="m0 0 1 3-5 22-11 42-9 31-10 29-7 19-7 18-13 29-9 17-7 11-9 12-1-3 4-24 8-30 14-45 14-36 22-50 10-19 9-17z" fill="#1B3022"/>
  <path transform="translate(1412,625)" d="m0 0 1 2-5 5-10 14-14 18-11 13-12 14-22 24-18 18-8 7-12 11-11 9-13 11-19 14-11 7-5 2 4-8 10-14 11-14 28-30 4-5 8-7 21-21 8-7 16-15 11-9 10-9 11-9 15-12 11-8z" fill="#1B3022"/>
  <path transform="translate(597,667)" d="m0 0 8 4 19 12 21 14 16 11 15 11 12 9 10 8 14 11 13 11 12 11 13 12 10 10v2h2l10 13 4 8-5-2-19-11-21-13-14-10-17-13-16-12-10-9-11-9-10-9-8-7-30-30-14-16-4-4z" fill="#1B3022"/>
  <path transform="translate(786,1259)" d="m0 0h2l-2 6-6 10-8 12-14 18-16 17-29 29-11 9-11 11-11 9-9 8-13 10-15 11-2-1 22-30 8-10 14-17 13-14 7-8 16-17 19-19 11-9 10-9 21-14z" fill="#1B3022"/>
  <path transform="translate(1040,78)" d="m0 0 1 3-1 72v138l1 44 2 2v6h-3l-1 9h2v7l2 2-3 4-2-5-4-18-2-17-3-47v-82l3-62 4-40 2-14z" fill="#242B18"/>
  <path transform="translate(999,894)" d="m0 0h5l-2 47-31 5-27 7-4 1 2-9 8-15 8-10 7-7 12-9 7-4 11-5z" style="fill: rgb(51, 89, 65);"/>
  <path d="m0 0h2l8 17 7 9 8 8 5 3 2-1v-10l2-6 3 1 8 14 9 10 10 8 5-1 11-9h3l2-3h2v-2h2v-3l6-1 1-3 3 9 3 3-5 4-4 1h-8v2l-2 1-1 4-7 6-8 4-7-2-9-6-8-7-2 2-7-1-10-6-13-11-3-3h-2l-3 3-9-3-9-7v-4h-2v-8l8 6v2h3l2-10 2-8z" fill="#222B19" transform="translate(958,1129)"/>
  <path transform="translate(1687,843)" d="m0 0h8l2 4 147 1 2 2-40 4-45 3-25 1h-75l-7-1v-2l14-8 4-2h6l1 1 2-1v2l5-2z" fill="#262D19"/>
  <path transform="translate(1018,1031)" d="m0 0h12l8 3 3 4-1 6-5 5-6 4 1 7 1 3 9 3h8l5-4 4-7h5l2 4-3 9-7 6-5 2h-11l-8-3-4-3-5 1-8 4-4 1h-7l-9-3-6-5-3-5v-6l1-2 5 1 6 8 5 2h8l8-5 1-8-10-7-2-4 1-7 6-3z" fill="#222B18"/>
  <path d="M 1477.81 1509.3 L 1485.81 1511.3 L 1497.81 1517.3 L 1506.81 1523.3 L 1521.81 1532.3 L 1530.81 1538.3 L 1541.81 1545.3 L 1550.81 1551.3 L 1567.81 1563.3 L 1575.81 1568.3 L 1575.81 1570.3 L 1580.81 1572.3 L 1591.81 1580.3 L 1605.81 1590.3 L 1615.81 1598.3 L 1626.81 1607.3 L 1637.81 1615.3 L 1642.81 1620.3 L 1651.81 1627.3 L 1656.81 1631.3 L 1656.81 1633.3 L 1660.81 1635.3 L 1671.81 1644.3 L 1682.81 1654.3 L 1691.81 1661.3 L 1691.81 1663.3 L 1695.81 1665.3 L 1706.81 1674.3 L 1713.81 1681.3 L 1721.81 1688.3 L 1733.81 1699.3 L 1740.81 1705.3 L 1740.81 1707.3 L 1744.81 1709.3 L 1752.81 1717.3 L 1760.81 1724.3 L 1778.81 1742.3 L 1781.81 1744.3 L 1781.81 1746.3 L 1784.81 1747.3 L 1784.81 1749.3 L 1788.81 1751.3 L 1822.81 1785.3 L 1829.81 1793.3 L 1843.81 1807.3 L 1855.81 1820.3 L 1870.81 1836.3 L 1870.81 1838.3 L 1873.81 1839.3 L 1880.81 1847.3 L 1895.81 1863.3 L 1902.81 1871.3 L 1912.81 1882.3 L 1931.79 1903.03 L 1938.89 1912.12 L 1965.81 1943.3 L 1973.81 1951.3 L 1976.81 1955.3 L 1979.81 1958.3 L 1988.81 1969.3 L 1990.81 1971.3 L 1999.81 1982.3 L 2010.81 1994.3 L 2019.81 2005.3 L 2026.81 2013.3 L 2029.81 2016.3 L 2038.81 2027.3 L 2042.81 2032.3 L 2048.322 2041.848 L 2048.062 2048.29 L 1991.81 2048.29 L 1976.81 2037.3 L 1966.81 2029.3 L 1955.81 2019.3 L 1944.81 2010.3 L 1937.81 2003.3 L 1923.81 1992.3 L 1913.81 1984.3 L 1913.81 1982.3 L 1909.81 1980.3 L 1898.81 1971.3 L 1886.81 1961.3 L 1876.81 1953.3 L 1876.81 1951.3 L 1872.81 1949.3 L 1862.81 1940.3 L 1850.81 1929.3 L 1839.81 1920.3 L 1832.81 1913.3 L 1821.81 1904.3 L 1806.81 1890.3 L 1804.81 1889.3 L 1804.81 1887.3 L 1802.81 1887.3 L 1794.81 1879.3 L 1794.81 1877.3 L 1790.81 1875.3 L 1780.81 1866.3 L 1772.81 1858.3 L 1764.81 1851.3 L 1752.81 1839.3 L 1744.81 1832.3 L 1714.81 1802.3 L 1712.81 1801.3 L 1712.81 1799.3 L 1710.81 1799.3 L 1709.81 1797.3 L 1707.81 1798.3 L 1703.81 1791.3 L 1680.81 1768.3 L 1673.81 1760.3 L 1662.81 1749.3 L 1662.81 1747.3 L 1660.81 1747.3 L 1653.81 1739.3 L 1644.81 1730.3 L 1635.81 1719.3 L 1620.81 1703.3 L 1613.81 1695.3 L 1604.81 1685.3 L 1595.81 1674.3 L 1567.81 1640.3 L 1558.81 1628.3 L 1547.81 1614.3 L 1533.81 1596.3 L 1515.81 1572.3 L 1509.81 1562.3 L 1498.81 1546.3 L 1486.81 1527.3 L 1479.81 1516.3 L 1477.81 1509.3 Z" fill="#183023" style="stroke-width: 1;"/>
  <path transform="translate(932,874)" d="M -0.357 -0.427 L 3.708 -3.787 L 3.55 3.731 L 3.686 9.639 L 4.715 18.19 L 7 25 L 11 31 L 13.107 33.321 L 16 36 L 20 39 L 17.141 43.362 L 10.365 53.266 L 5 62 L 4.213 63.206 L 1 61 L -4 57 L -11 45 L -13 38 L -13 23 L -9 11 L -3.895 3.69 L -0.357 -0.427 Z" fill="#CA7305"/>
  <path transform="translate(1114,874)" d="M 0 0 L 3.503 3.009 L 10 11 L 14 23 L 14 39 L 9 51 L 2 60 L -2 63 L -3.492 63.909 L -4 63 L -16 44 L -18.786 38.954 L -12 33 L -6.395 24.529 L -1.598 12.277 L 0 0 Z" fill="#CA7305"/>
  <path transform="translate(1062 1e3)" d="M 0.076 0.92 L 3.115 0.926 L 6 2 L 8.153 4.028 L 10 7 L 10.885 10.88 L 11 15 L 10.285 18.895 L 8 23 L 6.351 24.8 L 4 26 L 0.888 26.165 L -2 25 L -5.257 22.691 L -7 20 L -8 17 L -8.556 12.399 L -8 8 L -6.717 4.951 L -5 3 L -2.618 1.653 L 0.076 0.92 Z" fill="#232B18"/>
  <path transform="translate(982 1e3)" d="M 0.057 0.393 L 3.029 0.337 L 6 1 L 8.188 2.425 L 10 5 L 11 7 L 11.459 9.61 L 11.537 12.22 L 11 17 L 10.186 20.017 L 8.218 23.017 L 6.276 24.745 L 4.336 25.66 L 2.198 25.996 L -0.091 25.691 L -2 25 L -4.073 23.687 L -5.365 22.094 L -7 19 L -8 16 L -8.432 12.029 L -8 8 L -6.787 4.862 L -4.984 2.872 L -2.83 1.13 L 0.057 0.393 Z" fill="#222A17"/>
  <path transform="translate(1015,887)" d="M 0 0.248 L 17.588 0.126 L 19.279 1.009 L 20.16 2.354 L 20.701 6.125 L 21 11 L 22 40 L 22 49 L 21 53 L 5 54 L -2 54 L -5 53 L -4 24 L -3.334 10.416 L -2.818 5.786 L -2.07 2.615 L -1.027 1.028 L 0 0.248 Z" style="fill: rgb(51, 89, 65);"/>
  <path transform="translate(912,55)" d="m0 0 2 1 4 51 1 26v95l-3 35-2 3-2-2z" fill="#242C19"/>
  <path d="M 1062.72 1006.15 L 1065.87 1006.84 L 1067.01 1008.09 L 1069.06 1011.26 L 1070.01 1016.09 L 1069.07 1020.15 L 1066.42 1023.63 L 1063.61 1023.73 L 1059.35 1022.09 L 1057.01 1018.09 L 1057.01 1011.09 L 1059.01 1007.09 L 1062.72 1006.15 Z" fill="#173024" style="stroke-width: 1;"/>
  <path d="M 981.442 1005.41 L 984.052 1005.45 L 986.892 1006.43 L 989.892 1010.43 L 990.062 1013.88 L 989.892 1017.43 L 988.922 1020.04 L 986.882 1022.58 L 981.892 1022.83 L 977.896 1019.43 L 977.068 1015.46 L 976.896 1011.43 L 978.069 1008.52 L 979.462 1006.8 L 981.442 1005.41 Z" fill="#173024" style="stroke-width: 1;"/>
</svg>