<?xml version="1.0" encoding="utf-8"?>
<svg version="1.1" viewBox="0 0 375.495 377.71" xmlns="http://www.w3.org/2000/svg" xmlns:bx="https://boxy-svg.com">
  <defs>
    <bx:export>
      <bx:file format="svg" excluded="true"/>
      <bx:file format="png"/>
    </bx:export>
  </defs>
  <path d="M 266.894 271.997 L 268.705 272.263 L 274.746 275.192 L 281.39 278.918 L 285.919 282.111 L 288.637 283.975 L 292.564 286.904 L 296.188 289.832 L 298.604 291.695 L 302.227 294.622 L 304.341 296.486 L 306.758 298.35 L 311.288 302.343 L 313.402 304.473 L 317.933 308.464 L 320.045 310.595 L 323.066 313.522 L 325.783 316.451 L 328.803 319.645 L 331.522 322.575 L 334.843 326.3 L 337.863 330.027 L 340.279 333.222 L 340.279 334.02 L 339.07 333.487 L 334.542 330.825 L 329.709 327.631 L 324.576 324.437 L 321.252 322.042 L 318.234 319.913 L 314.61 317.516 L 301.924 307.932 L 298.302 305.005 L 295.885 303.142 L 292.865 300.479 L 290.45 298.615 L 290.45 298.084 L 289.845 298.084 L 289.845 297.551 L 288.637 297.019 L 284.409 293.025 L 281.088 289.832 L 278.37 286.904 L 274.444 282.644 L 271.424 278.918 L 268.705 275.192 L 267.195 272.53 L 266.894 271.997 Z" fill="#1A3023" style="stroke-width: 1;"/>
  <path d="M 360.056 105.443 L 360.399 106.129 L 354.229 110.585 L 346.686 115.727 L 341.545 119.155 L 336.06 122.583 L 327.832 127.382 L 320.292 131.494 L 308.636 137.665 L 296.982 143.151 L 290.468 145.893 L 283.611 148.636 L 272.3 152.405 L 263.729 154.462 L 259.96 155.148 L 258.589 155.148 L 259.275 153.776 L 262.701 150.35 L 269.214 145.551 L 274.357 142.123 L 279.499 139.037 L 288.753 133.894 L 294.582 130.811 L 300.068 128.068 L 311.379 122.926 L 323.719 117.783 L 333.66 114.013 L 345.657 109.557 L 360.056 105.443 Z" fill="#1A3023" style="stroke-width: 1;"/>
  <path d="M 134.154 262.098 L 134.497 262.098 L 134.154 264.841 L 131.411 272.041 L 127.641 279.24 L 123.526 285.752 L 119.755 291.237 L 114.958 297.751 L 110.158 303.577 L 107.072 307.348 L 102.615 312.148 L 100.215 314.89 L 96.789 318.662 L 92.333 323.116 L 89.933 325.859 L 83.758 332.029 L 81.018 334.429 L 76.561 338.886 L 72.106 342.999 L 69.363 345.398 L 65.935 348.141 L 65.935 347.112 L 69.363 340.943 L 71.421 337.515 L 74.163 333.059 L 77.932 326.887 L 81.36 321.744 L 85.819 315.233 L 89.933 309.405 L 93.704 304.263 L 98.161 298.093 L 102.615 292.608 L 105.701 288.838 L 109.472 284.723 L 111.872 281.981 L 117.014 276.497 L 119.755 273.755 L 122.498 271.355 L 126.269 267.927 L 129.697 265.184 L 134.154 262.098 Z" fill="#1A3023" style="stroke-width: 1;"/>
  <path d="M 284.64 26.258 L 284.983 26.944 L 279.499 38.94 L 272.642 52.651 L 268.529 60.194 L 264.758 66.708 L 262.701 70.477 L 259.275 76.305 L 256.189 81.105 L 252.418 86.933 L 248.647 92.416 L 243.848 98.587 L 238.364 105.786 L 234.593 110.243 L 231.165 113.669 L 229.107 116.069 L 224.308 119.84 L 221.908 121.554 L 221.565 120.183 L 224.651 110.927 L 228.765 102.015 L 233.564 93.788 L 236.307 88.99 L 239.392 84.19 L 244.19 76.991 L 247.618 72.191 L 250.361 68.422 L 253.789 63.965 L 258.589 57.451 L 262.701 52.309 L 265.786 48.539 L 269.558 43.74 L 273.328 39.283 L 276.414 35.512 L 280.185 31.398 L 282.583 28.658 L 284.64 26.258 Z" fill="#1A3023" style="stroke-width: 1;"/>
  <path d="M 78.394 185.343 L 90.391 185.343 L 98.964 186.027 L 106.163 187.055 L 108.905 187.741 L 108.905 188.427 L 100.678 191.513 L 94.85 193.227 L 83.193 195.626 L 74.966 196.998 L 61.254 198.712 L 48.571 199.398 L 19.433 199.398 L 7.093 198.712 L -0.106 198.026 L -0.106 197.34 L 12.234 194.255 L 24.576 191.855 L 38.63 189.455 L 50.629 187.741 L 67.768 186.027 L 78.394 185.343 Z" fill="#1A3023" style="stroke-width: 1;"/>
  <path d="M 277.234 217.327 L 284.395 217.327 L 295.291 218.934 L 304.632 220.864 L 317.707 224.4 L 333.274 229.545 L 338.878 231.795 L 346.351 234.687 L 352.889 237.581 L 363.164 242.403 L 368.455 244.975 L 374.371 248.189 L 374.371 248.831 L 370.945 248.51 L 349.775 244.331 L 337.321 241.439 L 323.935 237.902 L 317.396 235.973 L 304.632 231.474 L 297.471 228.58 L 290.622 225.364 L 285.641 222.793 L 279.725 219.578 L 277.234 217.649 L 277.234 217.327 Z" fill="#1A3023" style="stroke-width: 1;"/>
  <path d="M 10.178 142.132 L 13.949 142.132 L 20.804 142.822 L 39.314 145.562 L 51.999 147.962 L 64.682 150.702 L 77.024 153.792 L 87.307 156.872 L 97.247 160.302 L 105.82 164.072 L 111.305 166.812 L 114.733 168.872 L 116.105 170.242 L 115.419 170.582 L 105.82 170.582 L 94.505 169.212 L 82.507 167.162 L 69.482 164.072 L 59.883 161.332 L 49.943 158.242 L 35.546 153.102 L 25.947 149.332 L 20.804 147.272 L 12.235 143.502 L 10.178 142.482 L 10.178 142.132 Z" fill="#1A3023" style="stroke-width: 1;"/>
  <path d="M 198.6 -0.138 L 198.942 -0.138 L 199.285 3.633 L 199.285 36.884 L 198.257 53.68 L 196.543 68.765 L 194.485 80.419 L 192.429 89.676 L 190.029 97.902 L 187.287 105.786 L 185.572 109.215 L 184.887 109.557 L 183.858 105.101 L 183.515 99.958 L 183.515 83.161 L 184.544 70.82 L 186.258 57.794 L 188.315 45.797 L 192.085 26.258 L 194.485 15.631 L 197.914 1.234 L 198.6 -0.138 Z" fill="#193023" style="stroke-width: 1;"/>
  <path d="M 207.227 303.433 L 208.321 304.398 L 210.783 308.257 L 213.792 314.288 L 217.075 322.97 L 219.538 331.657 L 221.726 340.58 L 223.643 350.228 L 225.556 362.29 L 226.65 370.491 L 227.199 377.726 L 226.65 378.209 L 223.643 371.456 L 222.001 367.113 L 220.086 362.29 L 216.255 352.158 L 213.245 342.51 L 211.33 336.479 L 209.143 327.795 L 207.5 318.63 L 206.953 313.805 L 206.953 303.675 L 207.227 303.433 Z" fill="#1A3023" style="stroke-width: 1;"/>
  <path d="M 59.423 47.511 L 60.109 47.511 L 60.109 48.539 L 61.478 49.225 L 65.249 51.966 L 67.307 53.337 L 67.307 54.023 L 68.677 54.709 L 72.106 57.794 L 75.534 60.536 L 80.675 65.336 L 83.415 67.736 L 86.848 71.162 L 89.59 73.562 L 95.075 79.047 L 97.475 81.791 L 103.301 87.618 L 106.387 91.388 L 108.786 93.788 L 111.872 97.558 L 116.329 103.044 L 121.469 109.901 L 126.269 117.097 L 130.039 124.297 L 130.725 126.354 L 129.355 126.012 L 124.212 122.583 L 120.098 119.497 L 115.643 116.069 L 111.186 111.955 L 108.444 109.557 L 98.161 99.272 L 95.761 96.53 L 92.675 93.102 L 89.59 89.332 L 85.476 84.533 L 82.046 80.077 L 77.247 73.905 L 72.449 67.393 L 68.677 62.25 L 64.907 56.766 L 60.792 50.251 L 59.423 48.197 L 59.423 47.511 Z" fill="#193023" style="stroke-width: 1;"/>
  <path d="M 110.844 240.161 L 111.872 240.505 L 107.758 245.304 L 102.273 250.444 L 99.532 252.844 L 94.733 256.958 L 89.933 260.729 L 84.448 264.841 L 79.989 267.927 L 75.191 271.355 L 64.907 277.526 L 57.023 282.323 L 47.767 287.466 L 40.567 291.58 L 35.085 294.322 L 29.942 297.408 L 24.114 300.151 L 23.428 299.807 L 32.685 290.552 L 35.427 288.152 L 39.198 284.723 L 43.996 280.954 L 48.452 277.183 L 52.91 273.755 L 58.395 269.641 L 64.564 265.184 L 70.391 261.07 L 75.534 257.986 L 80.332 254.902 L 85.476 251.816 L 93.019 247.702 L 100.559 243.933 L 106.387 241.533 L 110.844 240.161 Z" fill="#1A3023" style="stroke-width: 1;"/>
  <path d="M 116.672 11.516 L 117.7 12.887 L 121.812 21.458 L 124.212 27.286 L 126.269 31.742 L 130.383 42.369 L 135.182 55.737 L 138.268 65.336 L 141.694 76.648 L 145.122 90.702 L 146.494 97.902 L 147.865 108.529 L 148.208 114.697 L 147.18 114.355 L 143.752 108.871 L 141.008 103.729 L 138.268 97.558 L 134.839 89.332 L 130.725 76.991 L 125.926 59.508 L 121.812 42.026 L 118.728 26.6 L 117.357 19.059 L 116.672 13.231 L 116.672 11.516 Z" fill="#1A3023" style="stroke-width: 1;"/>
  <path d="M 151.979 272.727 L 152.665 272.727 L 152.665 278.897 L 151.636 284.723 L 149.579 294.322 L 146.836 304.263 L 143.752 313.176 L 139.98 322.43 L 134.497 334.773 L 129.011 346.427 L 122.841 358.768 L 118.728 365.966 L 116.329 370.079 L 115.986 369.051 L 121.126 347.455 L 125.241 333.401 L 127.983 324.83 L 131.754 313.519 L 135.182 304.605 L 138.268 297.408 L 142.38 288.494 L 146.836 280.268 L 150.95 274.097 L 151.979 272.727 Z" fill="#1A3023" style="stroke-width: 1;"/>
  <path d="M 282.107 248.194 L 286.221 248.88 L 294.446 251.279 L 304.046 255.051 L 310.9 258.136 L 317.413 261.22 L 324.956 265.334 L 331.125 268.762 L 335.924 271.848 L 339.696 274.247 L 345.181 277.674 L 348.609 280.073 L 354.778 284.531 L 357.864 286.929 L 363.348 291.044 L 368.148 295.156 L 370.205 296.87 L 369.863 297.556 L 357.178 292.415 L 348.952 288.644 L 342.095 285.559 L 334.896 282.131 L 329.412 279.388 L 322.899 276.302 L 315.357 272.19 L 306.102 267.048 L 300.274 263.277 L 296.504 260.877 L 289.989 256.079 L 286.906 253.337 L 284.163 250.937 L 282.107 248.194 Z" fill="#1A3023" style="stroke-width: 1;"/>
  <path d="M 173.918 277.869 L 174.946 278.897 L 175.632 285.066 L 175.632 301.52 L 173.918 318.662 L 171.861 331.001 L 169.461 342.655 L 166.719 354.998 L 164.319 364.252 L 161.577 374.194 L 160.205 377.622 L 159.864 377.622 L 159.864 357.054 L 160.547 343.684 L 162.261 324.83 L 163.976 311.462 L 165.347 304.263 L 168.433 291.58 L 170.49 285.409 L 172.89 279.926 L 173.918 277.869 Z" fill="#1A3023" style="stroke-width: 1;"/>
  <path d="M 22.4 95.158 L 24.114 95.502 L 34.741 99.958 L 45.024 104.758 L 50.852 107.501 L 56.338 110.243 L 62.85 113.669 L 70.391 117.783 L 72.791 119.155 L 80.332 123.612 L 83.415 125.668 L 86.504 127.382 L 88.219 128.411 L 89.59 129.782 L 93.704 132.523 L 97.475 135.608 L 100.901 138.351 L 104.33 141.437 L 107.072 143.837 L 110.158 146.922 L 110.158 147.607 L 106.044 146.579 L 96.103 142.807 L 85.819 138.008 L 80.332 135.266 L 73.135 131.494 L 66.621 127.726 L 51.538 118.126 L 48.11 115.727 L 42.281 111.613 L 36.455 107.157 L 31.999 103.729 L 26.17 98.93 L 24.114 97.216 L 22.4 95.158 Z" fill="#1A3023" style="stroke-width: 1;"/>
  <path d="M 97.818 219.594 L 100.215 219.594 L 98.503 221.308 L 95.761 223.708 L 89.59 227.822 L 83.073 231.593 L 75.534 235.705 L 67.649 239.475 L 57.366 243.933 L 51.88 245.987 L 42.625 249.416 L 29.942 253.53 L 19.316 256.616 L 13.145 258.33 L 12.117 257.986 L 14.516 255.93 L 19.658 252.844 L 25.828 249.073 L 30.627 246.331 L 36.113 243.247 L 43.653 239.133 L 54.624 233.648 L 63.535 229.879 L 72.106 226.45 L 81.018 223.708 L 88.904 221.308 L 97.818 219.594 Z" fill="#1A3023" style="stroke-width: 1;"/>
  <path d="M 357.678 153.01 L 365.563 153.01 L 364.535 153.695 L 355.622 157.124 L 342.596 161.238 L 330.94 164.666 L 317.572 167.751 L 304.545 170.151 L 293.918 171.521 L 283.635 172.206 L 269.922 172.206 L 269.237 171.521 L 277.807 167.408 L 285.348 164.666 L 295.632 161.923 L 304.545 159.866 L 319.628 157.124 L 334.711 155.066 L 348.765 153.695 L 357.678 153.01 Z" fill="#1A3023" style="stroke-width: 1;"/>
  <path d="M 238.397 290.849 L 239.762 291.457 L 244.537 295.709 L 246.923 298.14 L 251.698 303.606 L 256.129 309.682 L 260.221 315.759 L 264.996 323.656 L 267.725 328.213 L 271.475 335.2 L 275.228 342.49 L 279.66 351.604 L 284.092 361.931 L 283.752 362.538 L 278.977 357.374 L 275.91 353.426 L 271.135 347.35 L 267.043 342.186 L 263.974 337.934 L 259.54 332.162 L 256.129 327.605 L 251.016 319.707 L 247.605 314.239 L 243.513 306.645 L 240.102 298.747 L 238.739 294.19 L 238.397 290.849 Z" fill="#1A3022" style="stroke-width: 1;"/>
  <path d="M 305.93 185.299 L 331.296 185.299 L 344.665 185.985 L 358.72 187.355 L 371.06 189.07 L 373.117 189.413 L 372.088 190.097 L 359.748 191.811 L 342.265 193.525 L 330.952 194.211 L 301.13 194.211 L 291.532 193.525 L 280.905 192.153 L 275.077 190.783 L 275.077 190.097 L 279.191 188.727 L 288.105 187.013 L 295.988 185.985 L 305.93 185.299 Z" fill="#1A3123" style="stroke-width: 1;"/>
  <path d="M 336.06 78.705 L 337.088 79.047 L 334.346 81.447 L 332.632 83.505 L 331.946 83.505 L 331.26 84.876 L 325.775 90.018 L 322.005 93.102 L 318.235 96.53 L 314.464 99.616 L 310.007 103.386 L 306.236 106.129 L 302.122 109.215 L 298.353 111.955 L 292.182 116.069 L 286.355 119.84 L 281.897 122.583 L 273.328 127.382 L 262.358 132.523 L 259.96 133.552 L 258.931 133.208 L 263.044 128.068 L 263.729 128.068 L 263.729 127.382 L 265.101 126.012 L 265.786 126.012 L 265.786 125.326 L 266.472 125.326 L 266.472 124.64 L 270.244 121.554 L 273.672 118.469 L 277.442 115.383 L 282.583 111.269 L 286.355 108.529 L 293.211 103.729 L 300.41 98.93 L 306.922 94.816 L 313.779 90.702 L 319.607 87.276 L 328.518 82.476 L 336.06 78.705 Z" fill="#1A3022" style="stroke-width: 1;"/>
  <path d="M 160.547 17.687 L 161.233 19.059 L 164.319 35.855 L 166.719 51.623 L 168.433 66.365 L 169.118 75.962 L 169.118 92.416 L 168.09 103.044 L 167.404 104.415 L 165.005 97.902 L 162.947 88.99 L 161.577 79.391 L 160.205 67.05 L 159.521 54.366 L 159.521 31.056 L 160.205 18.373 L 160.547 17.687 Z" fill="#1A3023" style="stroke-width: 1;"/>
  <path d="M 239.05 22.83 L 239.392 23.858 L 237.678 31.398 L 233.907 45.797 L 230.822 56.423 L 227.393 66.365 L 224.993 72.877 L 222.594 79.047 L 218.139 88.99 L 215.054 94.816 L 212.654 98.587 L 209.568 102.701 L 209.226 101.672 L 210.596 93.444 L 213.339 83.161 L 218.139 67.736 L 222.937 55.394 L 230.479 38.255 L 233.907 31.742 L 236.992 25.915 L 239.05 22.83 Z" fill="#1B3022" style="stroke-width: 1;"/>
  <path d="M 315.835 54.023 L 316.179 54.709 L 314.464 56.423 L 311.036 61.222 L 306.236 67.393 L 302.465 71.848 L 298.353 76.648 L 290.811 84.876 L 284.64 91.045 L 281.897 93.444 L 277.785 97.216 L 274.014 100.301 L 269.558 104.072 L 263.044 108.871 L 259.275 111.269 L 257.561 111.955 L 258.931 109.215 L 262.358 104.415 L 266.129 99.616 L 275.728 89.332 L 277.1 87.618 L 279.842 85.219 L 287.039 78.019 L 289.783 75.619 L 295.268 70.477 L 299.038 67.393 L 302.465 64.308 L 306.236 61.222 L 311.379 57.108 L 315.149 54.366 L 315.835 54.023 Z" fill="#1B3022" style="stroke-width: 1;"/>
  <path d="M 46.749 74.808 L 49.492 76.179 L 56.004 80.291 L 63.204 85.091 L 68.689 88.862 L 73.829 92.633 L 77.943 95.718 L 81.371 98.459 L 86.169 102.23 L 90.626 106.002 L 94.742 109.772 L 99.198 113.887 L 102.627 117.313 L 102.627 117.999 L 103.313 117.999 L 106.741 122.455 L 108.112 125.198 L 106.397 124.512 L 99.884 120.741 L 92.683 116.287 L 87.883 112.858 L 82.057 108.401 L 76.572 104.288 L 73.144 101.202 L 69.374 98.116 L 65.946 95.033 L 63.204 92.633 L 52.919 82.348 L 48.121 76.863 L 46.749 75.493 L 46.749 74.808 Z" fill="#1B3022" style="stroke-width: 1;"/>
  <path d="M 101.245 271.355 L 101.93 271.355 L 101.245 273.411 L 99.189 276.84 L 96.447 280.954 L 91.647 287.123 L 86.162 292.951 L 76.218 302.891 L 72.449 305.977 L 68.677 309.748 L 64.907 312.833 L 61.821 315.576 L 57.366 319.004 L 52.224 322.774 L 51.538 322.43 L 59.08 312.148 L 61.821 308.719 L 66.621 302.891 L 71.077 298.093 L 73.477 295.351 L 78.961 289.522 L 85.476 283.009 L 89.247 279.926 L 92.675 276.84 L 99.873 272.041 L 101.245 271.355 Z" fill="#1B3022" style="stroke-width: 1;"/>
  <path d="M 170.093 146.833 L 204.236 146.833 L 226.721 149.331 L 246.708 154.328 L 260.031 159.325 L 262.53 163.489 L 266.694 180.143 L 273.356 194.301 L 279.185 201.796 L 285.014 208.458 L 289.179 211.789 L 288.346 214.287 L 280.018 214.287 L 273.356 213.455 L 275.855 220.95 L 280.018 231.775 L 281.684 241.769 L 280.851 248.431 L 276.687 246.765 L 272.523 244.267 L 269.192 244.267 L 265.86 259.257 L 261.697 269.249 L 255.035 279.242 L 246.708 286.737 L 244.209 286.737 L 241.711 274.245 L 240.045 272.581 L 233.382 285.904 L 226.721 295.065 L 219.226 301.728 L 214.23 303.393 L 212.564 290.069 L 211.731 288.403 L 205.901 299.23 L 200.072 306.724 L 190.911 315.052 L 187.581 316.718 L 183.416 315.884 L 172.591 305.891 L 166.762 298.396 L 161.765 289.236 L 160.099 288.403 L 159.267 295.065 L 159.267 302.56 L 156.769 303.393 L 150.106 298.396 L 142.611 290.901 L 135.949 279.242 L 133.45 271.747 L 130.12 275.079 L 128.454 287.57 L 123.457 285.072 L 117.628 279.242 L 110.966 269.249 L 106.803 257.592 L 103.471 243.434 L 98.474 245.1 L 95.143 247.599 L 91.813 246.765 L 91.813 240.104 L 93.478 230.943 L 98.474 219.284 L 99.308 214.287 L 84.318 214.287 L 85.15 210.957 L 91.813 204.294 L 98.474 195.133 L 105.969 180.977 L 109.301 169.318 L 111.799 160.99 L 116.796 157.659 L 125.955 154.328 L 147.608 149.331 L 170.093 146.833 Z" fill="#CC7405" style="stroke-width: 1;"/>
  <path d="M 118.715 47.975 L 124.291 46.901 L 123.654 53.246 L 123.457 58.56 L 122.941 63.547 L 123.776 69.843 L 124.979 75.282 L 127.621 80.211 L 134.284 86.041 L 138.447 84.375 L 147.608 77.713 L 159.267 71.884 L 173.423 67.72 L 177.457 65.239 L 181.575 62.832 L 199.24 62.723 L 203.403 65.221 L 208.399 68.553 L 219.226 71.884 L 229.219 76.048 L 238.379 81.877 L 242.543 85.208 L 246.708 84.375 L 252.537 79.379 L 255.335 72.584 L 257.152 65.621 L 258.708 58.393 L 258.927 53.713 L 257.591 46.826 L 264.257 50.141 L 270.036 54.221 L 275.621 59.002 L 279.032 63.848 L 282.516 69.386 L 284.182 76.881 L 285.014 88.54 L 283.35 98.533 L 277.52 109.359 L 270.025 116.853 L 267.526 118.519 L 270.025 128.513 L 271.691 131.843 L 273.356 131.843 L 276.687 140.171 L 276.687 155.16 L 274.189 160.157 L 275.021 166.819 L 280.851 184.308 L 285.848 192.635 L 292.509 200.963 L 302.503 209.291 L 304.168 211.789 L 303.336 216.786 L 299.172 220.116 L 294.175 222.615 L 289.179 223.448 L 292.509 240.936 L 292.509 251.762 L 290.011 260.921 L 286.68 262.587 L 280.018 256.758 L 278.353 256.758 L 273.356 270.082 L 266.694 280.908 L 259.199 290.069 L 249.206 297.564 L 244.209 300.062 L 240.877 299.23 L 240.877 297.564 L 236.714 298.396 L 232.55 303.393 L 230.884 303.393 L 230.884 305.059 L 219.226 313.386 L 215.894 315.052 L 210.898 315.052 L 208.399 313.386 L 200.072 320.881 L 190.911 325.877 L 185.082 324.213 L 177.587 319.216 L 170.925 313.386 L 169.26 315.052 L 163.43 314.219 L 155.103 309.223 L 144.277 300.062 L 141.779 297.564 L 140.113 297.564 L 137.615 300.062 L 130.12 297.564 L 121.792 290.901 L 113.464 282.574 L 105.969 270.915 L 100.972 256.758 L 97.642 256.758 L 94.693 259.932 L 91.813 262.821 L 89.314 259.257 L 87.649 252.595 L 87.649 235.94 L 90.979 222.615 L 83.484 221.782 L 76.823 217.618 L 75.157 213.455 L 78.488 208.458 L 89.314 198.465 L 96.809 187.638 L 100.972 178.479 L 105.137 165.987 L 105.137 160.157 L 102.638 155.16 L 102.638 142.669 L 105.137 134.342 L 109.301 130.177 L 112.632 119.352 L 109.301 116.021 L 102.638 110.191 L 97.642 101.864 L 95.143 94.369 L 95.143 80.211 L 97.642 69.386 L 100.972 62.723 L 107.635 54.396 L 113.519 50.207 L 118.715 47.975 Z M 173.423 146.833 L 150.938 149.331 L 129.287 154.328 L 116.796 159.325 L 114.297 162.655 L 110.133 178.479 L 103.471 192.635 L 96.809 201.796 L 89.314 210.123 L 87.649 211.789 L 87.649 214.287 L 102.638 214.287 L 100.972 220.95 L 95.976 234.274 L 95.143 240.104 L 95.143 246.765 L 98.474 247.599 L 105.137 243.434 L 106.803 243.434 L 110.966 260.089 L 115.13 270.915 L 122.625 280.908 L 129.287 286.737 L 131.786 287.57 L 133.45 275.079 L 136.782 271.747 L 139.28 279.242 L 144.277 288.403 L 151.772 296.731 L 158.433 302.56 L 161.765 303.393 L 162.598 301.728 L 162.598 293.399 L 163.43 288.403 L 165.928 290.901 L 171.758 300.894 L 179.253 309.223 L 186.748 315.884 L 190.911 316.718 L 195.908 313.386 L 205.901 304.226 L 211.731 295.065 L 215.062 288.403 L 216.728 293.399 L 217.56 303.393 L 222.557 301.728 L 231.718 293.399 L 239.213 281.74 L 243.376 272.581 L 245.042 274.245 L 247.54 286.737 L 250.871 285.904 L 259.199 278.41 L 265.86 267.584 L 270.025 256.758 L 272.523 244.267 L 276.687 245.1 L 282.516 248.431 L 284.182 248.431 L 285.014 241.769 L 282.516 229.277 L 276.687 215.12 L 276.687 213.455 L 283.35 214.287 L 291.677 214.287 L 291.677 210.957 L 285.014 205.126 L 278.353 196.799 L 270.857 182.642 L 266.694 166.819 L 264.196 160.157 L 257.533 156.826 L 240.877 151.83 L 230.052 149.331 L 207.567 146.833 L 173.423 146.833 Z" style="fill: rgb(34, 44, 25); stroke-width: 1;"/>
  <path d="M 184.25 121.018 L 195.076 121.018 L 224.223 123.516 L 245.874 128.513 L 263.362 135.174 L 268.359 138.506 L 269.192 142.669 L 269.192 152.662 L 267.526 153.496 L 242.543 145.167 L 225.888 141.836 L 210.065 140.171 L 168.427 140.171 L 144.277 143.502 L 125.123 148.499 L 114.297 152.662 L 110.966 153.496 L 110.966 140.171 L 112.632 136.84 L 120.126 133.509 L 132.618 129.345 L 151.772 124.348 L 165.096 122.682 L 184.25 121.018 Z" style="fill: rgb(51, 89, 65); stroke-width: 1;"/>
  <path d="M 206.735 76.048 L 215.894 78.546 L 225.888 82.71 L 235.048 88.54 L 245.042 98.533 L 252.537 107.693 L 258.365 120.184 L 259.199 126.014 L 234.216 119.352 L 208.399 115.187 L 207.567 114.355 L 206.735 91.87 L 206.735 76.048 Z" style="fill: rgb(51, 89, 65); stroke-width: 1;"/>
  <path d="M 169.26 76.048 L 173.423 76.048 L 171.758 115.187 L 145.942 119.352 L 123.457 125.181 L 120.126 126.014 L 121.792 118.519 L 128.454 106.028 L 135.116 97.699 L 140.945 91.87 L 150.938 84.375 L 156.769 81.045 L 165.928 76.881 L 169.26 76.048 Z" style="fill: rgb(51, 89, 65); stroke-width: 1;"/>
  <path d="M 135.116 271.747 L 136.782 271.747 L 143.444 285.904 L 149.274 293.399 L 155.935 300.062 L 160.099 302.56 L 161.765 301.728 L 161.765 293.399 L 163.43 288.403 L 165.928 289.236 L 172.591 300.894 L 180.086 309.223 L 188.413 315.884 L 192.577 315.052 L 201.738 307.557 L 204.236 307.557 L 205.901 305.059 L 207.567 305.059 L 207.567 303.393 L 209.233 303.393 L 209.233 300.894 L 214.23 300.062 L 215.062 297.564 L 217.56 305.059 L 220.059 307.557 L 215.894 310.888 L 212.564 311.721 L 205.901 311.721 L 205.901 313.386 L 204.236 314.219 L 203.403 317.55 L 197.574 322.547 L 190.911 325.877 L 185.082 324.213 L 177.587 319.216 L 170.925 313.386 L 169.26 315.052 L 163.43 314.219 L 155.103 309.223 L 144.277 300.062 L 141.779 297.564 L 140.113 297.564 L 137.615 300.062 L 130.12 297.564 L 122.625 291.735 L 122.625 288.403 L 120.959 288.403 L 120.959 281.74 L 127.621 286.737 L 127.621 288.403 L 130.12 288.403 L 131.786 280.075 L 133.45 273.413 L 135.116 271.747 Z" fill="#222B19" style="stroke-width: 1;"/>
  <path d="M 185.082 190.137 L 195.076 190.137 L 201.738 192.635 L 204.236 195.967 L 203.403 200.963 L 199.24 205.126 L 194.243 208.458 L 195.076 214.287 L 195.908 216.786 L 203.403 219.284 L 210.065 219.284 L 214.23 215.953 L 217.56 210.123 L 221.724 210.123 L 223.389 213.455 L 220.891 220.95 L 215.062 225.946 L 210.898 227.612 L 201.738 227.612 L 195.076 225.113 L 191.745 222.615 L 187.581 223.448 L 180.918 226.779 L 177.587 227.612 L 171.758 227.612 L 164.264 225.113 L 159.267 220.95 L 156.769 216.786 L 156.769 211.789 L 157.601 210.123 L 161.765 210.957 L 166.762 217.618 L 170.925 219.284 L 177.587 219.284 L 184.25 215.12 L 185.082 208.458 L 176.755 202.628 L 175.089 199.297 L 175.922 193.468 L 180.918 190.97 L 185.082 190.137 Z" fill="#222B18" style="stroke-width: 1;"/>
  <path d="M 113.166 59.034 L 116.553 56.236 L 116.421 62.498 L 116.534 67.42 L 117.391 74.54 L 119.294 80.211 L 122.625 85.208 L 124.379 87.14 L 126.789 89.372 L 130.12 91.87 L 127.739 95.501 L 122.096 103.754 L 117.628 111.024 L 116.973 112.032 L 114.297 110.191 L 110.133 106.86 L 104.304 96.867 L 102.638 91.038 L 102.638 78.546 L 105.969 68.553 L 110.221 62.465 L 113.166 59.034 Z" fill="#CA7305" style="stroke-width: 1;"/>
  <path d="M 265.028 59.392 L 267.945 61.899 L 273.356 68.553 L 276.687 78.546 L 276.687 91.87 L 272.523 101.864 L 266.694 109.359 L 263.362 111.857 L 262.12 112.614 L 261.697 111.857 L 251.704 96.035 L 249.383 91.829 L 255.035 86.874 L 259.703 79.82 L 263.698 69.619 L 265.028 59.392 Z" fill="#CA7305" style="stroke-width: 1;"/>
  <path d="M 221.788 165.088 L 224.318 165.096 L 226.721 165.987 L 228.514 167.677 L 230.052 170.15 L 230.788 173.382 L 230.884 176.813 L 230.289 180.052 L 228.386 183.475 L 227.013 184.974 L 225.055 185.974 L 222.463 186.106 L 220.059 185.14 L 217.346 183.217 L 215.894 180.977 L 215.062 178.479 L 214.599 174.648 L 215.062 170.984 L 216.131 168.444 L 217.56 166.819 L 219.544 165.695 L 221.788 165.088 Z" fill="#232B18" style="stroke-width: 1;"/>
  <path d="M 155.15 164.646 L 157.625 164.605 L 160.099 165.154 L 161.922 166.336 L 163.43 168.485 L 164.264 170.15 L 164.645 172.325 L 164.711 174.498 L 164.264 178.479 L 163.586 180.993 L 161.946 183.491 L 160.329 184.924 L 158.714 185.69 L 156.933 185.965 L 155.027 185.715 L 153.437 185.14 L 151.711 184.049 L 150.635 182.717 L 149.274 180.143 L 148.44 177.645 L 148.08 174.34 L 148.44 170.984 L 149.451 168.369 L 150.952 166.711 L 152.746 165.262 L 155.15 164.646 Z" fill="#222A17" style="stroke-width: 1;"/>
  <path d="M 182.584 70.427 L 197.23 70.326 L 198.639 71.06 L 199.372 72.176 L 199.823 75.315 L 200.072 79.379 L 200.905 103.53 L 200.905 111.024 L 200.072 114.355 L 186.748 115.187 L 180.918 115.187 L 178.42 114.355 L 179.253 90.204 L 179.808 78.888 L 180.238 75.031 L 180.86 72.392 L 181.729 71.076 L 182.584 70.427 Z" style="fill: rgb(51, 89, 65); stroke-width: 1;"/>
  <path d="M 222.324 169.442 L 224.947 170.018 L 225.897 171.059 L 227.603 173.699 L 228.395 177.72 L 227.612 181.101 L 225.406 184 L 223.065 184.083 L 219.518 182.717 L 217.568 179.386 L 217.568 173.557 L 219.234 170.225 L 222.324 169.442 Z" fill="#173024" style="stroke-width: 1;"/>
  <path d="M 154.638 168.827 L 156.811 168.86 L 159.177 169.676 L 161.675 173.007 L 161.817 175.88 L 161.675 178.836 L 160.867 181.01 L 159.168 183.125 L 155.013 183.333 L 151.686 180.502 L 150.996 177.195 L 150.852 173.839 L 151.83 171.416 L 152.989 169.984 L 154.638 168.827 Z" fill="#173024" style="stroke-width: 1;"/>
</svg>