<svg version="1.2" xmlns="http://www.w3.org/2000/svg" viewBox="0 0 2048 2048">
  <style>.a{fill:#e1a617}.b{fill:#193023}.c{fill:#1a3022}.d{fill:#1a3123}.e{fill:#1b3022}.f{fill:#cc7405}.g{fill:#222c19}.h{fill:#335941}.i{fill:#222b19}.j{fill:#222b18}.k{fill:#ca7305}.l{fill:#232b18}.m{fill:#222a17}.n{fill:#173024}</style>
  <path class="a" d="m1461.6 1482.1l9.9 1.4 32.8 16 36.1 20.3 24.6 17.4 14.8 10.1 21.4 16 19.6 15.9 13.2 10.2 19.7 15.9 11.5 10.2 13.1 10.2 24.6 21.7 11.5 11.6 24.6 21.8 11.5 11.6 16.4 15.9 14.8 16 16.4 17.4 14.8 16 18.1 20.3 16.4 20.3 13.1 17.4v4.3l-6.6-2.9-24.6-14.5-26.2-17.4-27.9-17.4-18.1-13-16.4-11.6-19.7-13.1-69-52.2-19.7-16-13.1-10.1-16.4-14.5-13.1-10.2v-2.9h-3.3v-2.9l-6.6-2.9-23-21.8-18-17.4-14.8-15.9-21.3-23.2-16.5-20.3-14.7-20.3-8.2-14.5z"></path>
  <path class="a" d="m1968 574.5l1.9 3.8-33.6 24.3-41 28-27.9 18.7-29.8 18.6-44.7 26.2-41 22.4-63.4 33.6-63.3 29.9-35.4 14.9-37.3 15-61.5 20.5-46.6 11.2-20.5 3.8h-7.4l3.7-7.5 18.6-18.7 35.4-26.1 28-18.7 27.9-16.8 50.3-28 31.7-16.8 29.8-15 61.5-28 67.1-28 54-20.6 65.2-24.2z"></path>
  <path class="a" d="m740.1 1428.1h1.9l-1.9 15-14.9 39.2-20.5 39.2-22.4 35.5-20.5 29.9-26.1 35.5-26 31.7-16.8 20.6-24.2 26.1-13.1 15-18.6 20.5-24.2 24.3-13.1 15-33.5 33.6-14.9 13.1-24.3 24.2-24.2 22.4-14.9 13.1-18.6 15v-5.6l18.6-33.7 11.2-18.6 14.9-24.3 20.5-33.6 18.6-28.1 24.3-35.4 22.3-31.8 20.5-28 24.2-33.6 24.3-29.9 16.7-20.6 20.5-22.4 13.1-14.9 27.9-29.9 14.9-15 14.9-13 20.5-18.7 18.7-15z"></path>
  <path class="a" d="m1558.1 143.1l1.8 3.7-29.8 65.4-37.2 74.7-22.4 41.1-20.5 35.5-11.2 20.5-18.6 31.8-16.8 26.1-20.5 31.8-20.5 29.9-26.1 33.6-29.8 39.2-20.5 24.3-18.6 18.7-11.2 13-26.1 20.6-13 9.3-1.9-7.4 16.8-50.5 22.4-48.5 26-44.9 15-26.1 16.7-26.2 26.1-39.2 18.6-26.1 14.9-20.6 18.7-24.3 26.1-35.5 22.3-28 16.8-20.5 20.5-26.2 20.5-24.3 16.8-20.5 20.5-22.4 13-14.9z"></path>
  <path class="a" d="m437 1009.9h65.2l46.6 3.7 39.1 5.6 14.9 3.8v3.7l-44.7 16.8-31.7 9.4-63.3 13-44.7 7.5-74.6 9.4-68.9 3.7h-158.4l-67.1-3.7-39.1-3.8v-3.7l67.1-16.8 67.1-13.1 76.4-13.1 65.2-9.3 93.1-9.4z"></path>
  <path class="a" d="m1517.8 1184.2h38.9l59.3 8.7 50.7 10.6 71.1 19.2 84.6 28.1 30.5 12.2 40.6 15.8 35.6 15.7 55.8 26.3 28.8 14 32.1 17.5v3.5l-18.6-1.7-115.1-22.8-67.7-15.7-72.7-19.3-35.6-10.5-69.4-24.5-38.9-15.8-37.2-17.5-27.1-14-32.1-17.6-13.6-10.5z"></path>
  <path class="a" d="m66.2 774.5h20.5l37.3 3.7 100.6 14.9 68.9 13.1 69 15 67 16.8 55.9 16.8 54.1 18.7 46.6 20.5 29.8 14.9 18.6 11.3 7.5 7.4-3.7 1.9h-52.2l-61.5-7.5-65.2-11.2-70.8-16.8-52.2-14.9-54.1-16.9-78.2-28-52.2-20.5-27.9-11.2-46.6-20.6-11.2-5.5z"></path>
  <path class="b" d="m1090.4-0.8h1.9l1.8 20.6v181.2l-5.6 91.5-9.3 82.2-11.2 63.5-11.1 50.4-13.1 44.9-14.9 42.9-9.3 18.7-3.7 1.9-5.6-24.3-1.9-28v-91.6l5.6-67.2 9.3-71 11.2-65.4 20.5-106.4 13-57.9 18.7-78.5z"></path>
  <path class="a" d="m1137.3 1653.4l5.9 5.2 13.4 21 16.4 32.9 17.8 47.3 13.4 47.3 11.9 48.7 10.4 52.5 10.4 65.8 6 44.6 2.9 39.5-2.9 2.6-16.4-36.8-8.9-23.7-10.4-26.2-20.8-55.2-16.4-52.6-10.4-32.9-11.9-47.3-8.9-49.9-3-26.3v-55.2z"></path>
  <path class="b" d="M 332.014 259.319 C 332.211 259.002 338.398 263.551 338.339 263.698 L 345 268.2 L 365.5 283.2 L 374.562 290.222 L 378.964 293.668 L 384.2 298.1 L 402.8 314.9 L 421.4 329.9 L 449.4 356 L 464.3 369.1 L 482.9 387.8 L 497.9 400.8 L 527.7 430.7 L 540.7 445.7 L 572.4 477.4 L 589.2 498 L 602.2 511 L 619 531.6 L 643.2 561.5 L 671.1 598.8 L 697.2 638 L 717.7 677.3 L 721.4 688.5 L 714 686.6 L 686 667.9 L 663.7 651.1 L 639.5 632.4 L 615.2 610 L 600.3 597 L 544.4 540.9 L 531.4 526 L 514.6 507.3 L 497.9 486.8 L 475.5 460.6 L 456.8 436.3 L 430.8 402.7 L 404.7 367.2 L 384.2 339.2 L 363.7 309.3 L 341.3 273.8 L 333.9 262.6 L 332.014 259.319 Z"></path>
  <path class="a" d="m613.4 1308.6l5.6 1.9-22.4 26.1-29.8 28-14.9 13.1-26.1 22.4-26.1 20.6-29.8 22.4-24.2 16.8-26.1 18.7-55.9 33.6-42.9 26.1-50.3 28.1-39.1 22.4-29.8 14.9-28 16.8-31.7 15-3.7-1.9 50.3-50.4 14.9-13.1 20.5-18.7 26.1-20.5 24.2-20.6 24.3-18.7 29.8-22.4 33.5-24.3 31.7-22.4 27.9-16.8 26.1-16.8 28-16.8 41-22.4 41-20.5 31.7-13.1z"></path>
  <path class="a" d="m645.1 62.7l5.5 7.5 22.4 46.7 13 31.8 11.2 24.3 22.4 57.9 26.1 72.8 16.7 52.3 18.7 61.6 18.6 76.6 7.5 39.3 7.4 57.9 1.9 33.6-5.6-1.9-18.6-29.9-15-28-14.9-33.6-18.6-44.8-22.4-67.3-26-95.3-22.4-95.2-16.8-84.1-7.4-41.1-3.7-31.7z"></path>
  <path class="a" d="m837 1486h3.7v33.7l-5.6 31.7-11.2 52.3-14.9 54.2-16.7 48.5-20.5 50.5-29.8 67.2-29.9 63.5-33.5 67.3-22.4 39.2-13 22.4-1.9-5.6 28-117.7 22.3-76.6 14.9-46.7 20.5-61.6 18.7-48.6 16.7-39.2 22.4-48.5 24.2-44.9 22.4-33.6z"></path>
  <path class="a" d="m1544.3 1352.4l22.4 3.7 44.7 13.1 52.2 20.5 37.2 16.8 35.4 16.8 41 22.5 33.6 18.6 26 16.9 20.5 13 29.9 18.7 18.6 13.1 33.5 24.3 16.8 13 29.8 22.5 26.1 22.4 11.2 9.3-1.9 3.7-68.9-28-44.7-20.5-37.3-16.8-39.1-18.7-29.9-15-35.4-16.8-41-22.4-50.3-28-31.6-20.5-20.5-13.1-35.4-26.2-16.8-14.9-14.9-13.1z"></path>
  <path class="a" d="m956.2 1514.1l5.6 5.6 3.7 33.6v89.6l-9.3 93.4-11.2 67.3-13 63.5-14.9 67.2-13 50.5-15 54.1-7.4 18.7h-1.9v-112.1l3.8-72.8 9.3-102.8 9.3-72.8 7.4-39.2 16.8-69.1 11.2-33.7 13-29.8z"></path>
  <path class="a" d="m132.6 518.5l9.3 1.9 57.8 24.3 55.9 26.1 31.7 15 29.8 14.9 35.4 18.7 41 22.4 13 7.5 41 24.2 16.8 11.2 16.8 9.4 9.3 5.6 7.5 7.5 22.3 14.9 20.5 16.8 18.6 15 18.7 16.8 14.9 13 16.8 16.9v3.7l-22.4-5.6-54-20.6-55.9-26.1-29.9-15-39.1-20.5-35.4-20.5-82-52.3-18.6-13.1-31.7-22.4-31.7-24.3-24.2-18.7-31.7-26.1-11.2-9.4z"></path>
  <path class="a" d="m542.6 1196.5h13l-9.3 9.4-14.9 13-33.5 22.5-35.5 20.5-41 22.4-42.8 20.6-55.9 24.3-29.8 11.1-50.3 18.7-69 22.4-57.7 16.9-33.6 9.3-5.6-1.9 13.1-11.2 27.9-16.8 33.6-20.5 26-15 29.9-16.8 41-22.4 59.6-29.9 48.4-20.5 46.6-18.7 48.5-15 42.8-13z"></path>
  <path class="a" d="m1955.1 833.7h42.8l-5.5 3.8-48.5 18.6-70.8 22.5-63.4 18.6-72.6 16.8-70.8 13.1-57.8 7.5-55.9 3.7h-74.5l-3.7-3.7 46.5-22.4 41-15 55.9-14.9 48.5-11.2 82-15 81.9-11.2 76.4-7.4z"></path>
  <path class="c" d="m1306.7 1584.8l7.4 3.3 26 23.2 13 13.2 25.9 29.8 24.1 33.1 22.2 33.1 26 43.1 14.8 24.8 20.4 38.1 20.4 39.7 24.1 49.6 24.1 56.3-1.8 3.3-26-28.1-16.7-21.5-25.9-33.1-22.3-28.2-16.7-23.2-24.1-31.4-18.5-24.8-27.8-43.1-18.5-29.8-22.3-41.3-18.5-43.1-7.4-24.8z"></path>
  <path class="d" d="m1673.8 1009.7h137.9l72.7 3.7 76.4 7.5 67 9.3 11.2 1.9-5.6 3.7-67.1 9.3-95 9.4-61.5 3.7h-162.1l-52.2-3.7-57.7-7.5-31.7-7.5v-3.7l22.4-7.5 48.4-9.3 42.9-5.6z"></path>
  <path class="c" d="m1837.6 428.9l5.6 1.8-14.9 13.1-9.4 11.2h-3.7l-3.7 7.5-29.8 28-20.5 16.8-20.5 18.7-20.5 16.8-24.2 20.5-20.5 15-22.4 16.8-20.5 14.9-33.5 22.4-31.7 20.6-24.2 14.9-46.6 26.2-59.6 28-13.1 5.6-5.6-1.9 22.4-28h3.7v-3.7l7.5-7.5h3.7v-3.7h3.7v-3.8l20.5-16.8 18.7-16.8 20.5-16.8 27.9-22.4 20.5-14.9 37.3-26.2 39.1-26.1 35.4-22.5 37.3-22.4 31.6-18.6 48.5-26.2z"></path>
  <path class="a" d="m883.6 96.4l3.7 7.4 16.8 91.6 13 85.9 9.3 80.3 3.7 52.3v89.7l-5.5 57.9-3.8 7.4-13-35.4-11.2-48.6-7.5-52.3-7.4-67.3-3.7-69.1v-127l3.7-69.1z"></path>
  <path class="e" d="m1310.3 124.4l1.8 5.6-9.3 41.1-20.5 78.4-16.8 57.9-18.6 54.2-13 35.5-13.1 33.6-24.2 54.2-16.8 31.7-13 20.6-16.8 22.4-1.8-5.6 7.4-44.8 14.9-56.1 26.1-84 26.1-67.3 41-93.4 18.6-35.4 16.8-31.8z"></path>
  <path class="e" d="m1727.6 294.4l1.9 3.7-9.3 9.3-18.6 26.2-26.1 33.6-20.5 24.3-22.4 26.1-41 44.9-33.5 33.6-14.9 13.1-22.4 20.5-20.5 16.8-24.2 20.6-35.4 26.1-20.5 13.1-9.3 3.7 7.4-14.9 18.7-26.2 20.5-26.1 52.1-56 7.5-9.4 14.9-13.1 39.1-39.2 14.9-13.1 29.8-28 20.5-16.8 18.7-16.8 20.5-16.8 27.9-22.4 20.5-15z"></path>
  <path class="e" d="M 264.851 406.962 L 279.061 416.196 L 315.3 437.5 L 354.4 463.6 L 384.2 484.2 L 412.2 504.7 L 434.5 521.6 L 453.2 536.5 L 479.3 557 L 503.5 577.6 L 525.9 598.1 L 550.1 620.6 L 568.7 639.2 L 570.82 641.339 L 572.4 643 L 591.1 667.2 L 598.5 682.2 L 589.2 678.4 L 553.8 657.9 L 514.7 633.6 L 488.6 614.9 L 456.9 590.7 L 427.1 568.2 L 408.5 551.4 L 388 534.6 L 369.3 517.8 L 354.4 504.7 L 298.5 448.7 L 272.98 418.422 L 267.247 410.899 L 264.851 406.962 Z"></path>
  <path class="e" d="m561.2 1478.6h3.7l-3.7 11.2-11.2 18.7-14.9 22.4-26.1 33.6-29.8 31.7-54 54.2-20.5 16.8-20.5 20.6-20.5 16.8-16.8 14.9-24.2 18.7-28 20.5-3.7-1.8 41-56.1 14.9-18.6 26.1-31.8 24.2-26.1 13.1-15 29.8-31.7 35.4-35.5 20.5-16.8 18.6-16.8 39.1-26.2z"></path>
  <path class="f" d="M 914.275 733.25 L 1163.98 733.25 L 1328.55 751.548 L 1474.66 788.144 L 1572.06 824.743 L 1590.37 855.285 L 1620.78 977.446 L 1669.49 1081.17 L 1712.13 1136.22 L 1754.78 1185.06 L 1785.33 1209.42 L 1779.13 1227.69 L 1718.31 1227.69 L 1669.49 1221.64 L 1687.77 1276.54 L 1718.31 1355.93 L 1730.42 1429.27 L 1724.38 1478.09 L 1693.84 1465.84 L 1663.43 1447.54 L 1639.07 1447.54 L 1614.72 1557.47 L 1584.32 1630.66 L 1535.61 1703.85 L 1474.66 1758.89 L 1456.35 1758.89 L 1438.05 1667.27 L 1425.95 1655.16 L 1377.25 1752.69 L 1328.55 1819.96 L 1273.64 1868.82 L 1237.2 1880.92 L 1224.94 1783.24 L 1218.89 1771.12 L 1176.24 1850.51 L 1133.58 1905.41 L 1066.58 1966.5 L 1042.22 1978.59 L 1011.82 1972.55 L 932.578 1899.36 L 889.922 1844.32 L 853.456 1777.19 L 841.216 1771.12 L 835.162 1819.96 L 835.162 1874.87 L 816.865 1880.92 L 768.158 1844.32 L 713.399 1789.42 L 664.559 1703.85 L 646.396 1648.96 L 622.044 1673.45 L 609.801 1764.93 L 573.204 1746.65 L 530.688 1703.85 L 481.849 1630.66 L 451.441 1545.22 L 427.089 1441.35 L 390.493 1453.61 L 366.139 1471.91 L 341.788 1465.84 L 341.788 1417.01 L 354.031 1349.87 L 390.493 1264.31 L 396.681 1227.69 L 287.028 1227.69 L 293.083 1203.35 L 341.788 1154.52 L 390.493 1087.24 L 445.387 983.511 L 469.74 898.067 L 488.038 836.983 L 524.5 812.629 L 591.503 788.144 L 749.861 751.548 L 914.275 733.25 Z" style=""></path>
  <path class="g" d="M 538.627 8.458 L 579.394 0.655 L 574.684 47.072 L 573.204 86.091 L 569.438 122.687 L 575.626 168.835 L 584.371 208.661 L 603.746 244.853 L 652.451 287.504 L 682.858 275.259 L 749.861 226.42 L 835.162 183.77 L 938.629 153.228 L 968.228 135.065 L 998.365 117.44 L 1127.54 116.632 L 1157.94 134.93 L 1194.53 159.283 L 1273.64 183.77 L 1346.7 214.312 L 1413.7 256.962 L 1444.25 281.448 L 1474.66 275.259 L 1517.3 238.664 L 1537.76 188.883 L 1551.08 137.89 L 1562.38 84.88 L 1564 50.571 L 1554.18 -0.018 L 1603.01 24.334 L 1645.27 54.204 L 1686.16 89.321 L 1711.06 124.839 L 1736.47 165.472 L 1748.72 220.366 L 1754.78 305.803 L 1742.67 379.127 L 1700.02 458.51 L 1645.13 513.404 L 1626.96 525.648 L 1645.13 598.839 L 1657.36 623.327 L 1669.49 623.327 L 1693.84 684.409 L 1693.84 794.199 L 1675.67 830.932 L 1681.72 879.765 L 1724.38 1007.98 L 1760.84 1068.95 L 1809.67 1130.03 L 1882.73 1191.1 L 1894.85 1209.42 L 1888.78 1246 L 1858.38 1270.5 L 1821.79 1288.78 L 1785.33 1294.85 L 1809.67 1423.07 L 1809.67 1502.45 L 1791.37 1569.58 L 1767.02 1581.83 L 1718.31 1539.03 L 1706.07 1539.03 L 1669.49 1636.72 L 1620.78 1716.11 L 1566.01 1783.24 L 1492.96 1838.28 L 1456.35 1856.57 L 1432.01 1850.51 L 1432.01 1838.28 L 1401.6 1844.32 L 1371.07 1880.92 L 1358.95 1880.92 L 1358.95 1893.15 L 1273.64 1954.23 L 1249.29 1966.5 L 1212.7 1966.5 L 1194.53 1954.23 L 1133.58 2009.13 L 1066.58 2045.86 L 1023.93 2033.63 L 969.172 1997.04 L 920.464 1954.23 L 908.224 1966.5 L 865.569 1960.31 L 804.755 1923.69 L 725.509 1856.57 L 707.21 1838.28 L 695.102 1838.28 L 676.804 1856.57 L 622.044 1838.28 L 561.095 1789.42 L 500.146 1728.34 L 445.387 1642.91 L 408.791 1539.03 L 384.439 1539.03 L 362.91 1562.33 L 341.788 1583.59 L 323.624 1557.47 L 311.38 1508.64 L 311.38 1386.47 L 335.734 1288.78 L 280.974 1282.73 L 232.268 1252.19 L 220.025 1221.64 L 244.377 1185.06 L 323.624 1111.73 L 378.382 1032.34 L 408.791 965.207 L 439.332 873.577 L 439.332 830.932 L 421.035 794.199 L 421.035 702.708 L 439.332 641.626 L 469.74 611.084 L 494.092 531.702 L 469.74 507.35 L 421.035 464.564 L 384.439 403.481 L 366.139 348.586 L 366.139 244.853 L 384.439 165.472 L 408.791 116.632 L 457.495 55.548 L 500.55 24.873 L 538.627 8.458 Z M 938.766 733.115 L 774.349 751.413 L 615.989 788.144 L 524.633 824.743 L 506.335 849.096 L 475.928 965.207 L 427.223 1068.95 L 378.382 1136.08 L 323.624 1197.16 L 311.516 1209.42 L 311.516 1227.69 L 421.035 1227.69 L 408.926 1276.54 L 372.329 1374.22 L 366.275 1417.01 L 366.275 1465.71 L 390.628 1471.91 L 439.332 1441.35 L 451.576 1441.35 L 481.984 1563.39 L 512.39 1642.77 L 567.284 1716.11 L 615.989 1758.75 L 634.287 1764.93 L 646.396 1673.31 L 670.748 1648.96 L 689.048 1703.85 L 725.643 1771 L 780.404 1832.08 L 829.108 1874.87 L 853.456 1880.92 L 859.645 1868.67 L 859.645 1807.59 L 865.707 1771 L 883.998 1789.29 L 926.516 1862.61 L 981.412 1923.69 L 1036.17 1972.55 L 1066.72 1978.59 L 1103.18 1954.23 L 1176.24 1886.96 L 1218.89 1819.83 L 1243.24 1771 L 1255.47 1807.59 L 1261.54 1880.92 L 1298.13 1868.67 L 1365.13 1807.59 L 1419.9 1722.16 L 1450.31 1655.01 L 1462.56 1667.27 L 1480.85 1758.75 L 1505.2 1752.69 L 1566.01 1697.8 L 1614.86 1618.43 L 1645.27 1539.03 L 1663.55 1447.41 L 1693.97 1453.61 L 1736.62 1477.96 L 1748.72 1477.96 L 1754.92 1429.12 L 1736.62 1337.63 L 1693.97 1233.77 L 1693.97 1221.52 L 1742.67 1227.69 L 1803.62 1227.69 L 1803.62 1203.23 L 1754.92 1160.57 L 1706.21 1099.48 L 1651.32 995.61 L 1620.9 879.638 L 1602.61 830.794 L 1553.9 806.44 L 1432.15 769.846 L 1352.9 751.413 L 1188.48 733.115 L 938.766 733.115 Z" style=""></path>
  <path class="h" d="M 1017.87 543.945 L 1096.99 543.945 L 1310.24 562.243 L 1468.6 598.839 L 1596.41 647.679 L 1633.02 672.167 L 1639.07 702.708 L 1639.07 775.899 L 1626.96 782.089 L 1444.25 721.007 L 1322.35 696.518 L 1206.65 684.409 L 902.162 684.409 L 725.509 708.763 L 585.447 745.358 L 506.335 775.899 L 481.849 782.089 L 481.849 684.409 L 494.092 659.923 L 548.851 635.571 L 640.207 605.028 L 780.404 568.433 L 877.809 556.189 L 1017.87 543.945 Z" style=""></path>
  <path class="h" d="M 1182.29 214.312 L 1249.29 232.609 L 1322.35 263.151 L 1389.36 305.803 L 1462.41 379.127 L 1517.3 446.266 L 1559.97 537.892 L 1566.01 580.541 L 1383.3 531.702 L 1194.53 501.16 L 1188.35 495.105 L 1182.29 330.288 L 1182.29 214.312 Z" style=""></path>
  <path class="h" d="M 908.224 214.312 L 938.629 214.312 L 926.516 501.16 L 737.752 531.702 L 573.204 574.487 L 548.851 580.541 L 561.095 525.648 L 609.801 434.023 L 658.505 372.939 L 701.156 330.288 L 774.214 275.259 L 816.865 250.907 L 883.871 220.366 L 908.224 214.312 Z" style=""></path>
  <path class="i" d="M 658.505 1648.96 L 670.748 1648.96 L 719.454 1752.69 L 762.105 1807.74 L 810.81 1856.57 L 841.216 1874.87 L 853.456 1868.82 L 853.456 1807.74 L 865.569 1771.12 L 883.871 1777.19 L 932.578 1862.61 L 987.463 1923.69 L 1048.28 1972.55 L 1078.83 1966.5 L 1145.84 1911.46 L 1163.98 1911.46 L 1176.24 1893.15 L 1188.35 1893.15 L 1188.35 1880.92 L 1200.59 1880.92 L 1200.59 1862.61 L 1237.2 1856.57 L 1243.24 1838.28 L 1261.54 1893.15 L 1279.7 1911.46 L 1249.29 1935.95 L 1224.94 1942.01 L 1176.24 1942.01 L 1176.24 1954.23 L 1163.98 1960.31 L 1157.94 1984.77 L 1115.29 2021.4 L 1066.58 2045.86 L 1023.93 2033.63 L 969.172 1997.04 L 920.464 1954.23 L 908.224 1966.5 L 865.569 1960.31 L 804.755 1923.69 L 725.509 1856.57 L 707.21 1838.28 L 695.102 1838.28 L 676.804 1856.57 L 622.044 1838.28 L 567.149 1795.47 L 567.149 1771.12 L 555.041 1771.12 L 555.041 1722.3 L 603.746 1758.89 L 603.746 1771.12 L 622.044 1771.12 L 634.153 1710.05 L 646.396 1661.2 L 658.505 1648.96 Z" style=""></path>
  <path class="j" d="M 1023.93 1050.65 L 1096.99 1050.65 L 1145.84 1068.95 L 1163.98 1093.42 L 1157.94 1130.03 L 1127.54 1160.57 L 1090.93 1185.06 L 1096.99 1227.69 L 1103.18 1246 L 1157.94 1264.31 L 1206.65 1264.31 L 1237.2 1239.95 L 1261.54 1197.16 L 1291.95 1197.16 L 1304.05 1221.64 L 1285.89 1276.54 L 1243.24 1313.14 L 1212.7 1325.39 L 1145.84 1325.39 L 1096.99 1307.08 L 1072.63 1288.78 L 1042.22 1294.85 L 993.523 1319.33 L 969.172 1325.39 L 926.516 1325.39 L 871.758 1307.08 L 835.162 1276.54 L 816.865 1246 L 816.865 1209.42 L 822.919 1197.16 L 853.456 1203.35 L 889.922 1252.19 L 920.464 1264.31 L 969.172 1264.31 L 1017.87 1233.89 L 1023.93 1185.06 L 963.11 1142.26 L 950.87 1117.79 L 956.92 1075.14 L 993.523 1056.84 L 1023.93 1050.65 Z" style=""></path>
  <path class="k" d="M 497.993 89.588 L 522.751 69.004 L 521.808 114.882 L 522.615 151.076 L 528.939 203.278 L 542.797 244.853 L 567.149 281.448 L 580.066 295.576 L 597.691 311.991 L 622.044 330.288 L 604.554 356.928 L 563.248 417.339 L 530.688 470.754 L 525.846 478.018 L 506.335 464.564 L 475.794 440.213 L 433.143 366.885 L 421.035 324.235 L 421.035 232.609 L 445.387 159.283 L 476.466 114.748 L 497.993 89.588 Z" style=""></path>
  <path class="k" d="M 1608.66 92.146 L 1629.92 110.577 L 1669.49 159.283 L 1693.84 232.609 L 1693.84 330.288 L 1663.43 403.481 L 1620.78 458.51 L 1596.41 476.807 L 1587.41 482.325 L 1584.32 476.807 L 1511.12 360.829 L 1494.16 330.02 L 1535.61 293.693 L 1569.64 241.893 L 1598.85 167.087 L 1608.66 92.146 Z" style=""></path>
  <path class="l" d="M 1292.36 866.984 L 1310.92 867.122 L 1328.55 873.577 L 1341.59 885.954 L 1352.9 904.119 L 1358.27 927.804 L 1358.95 952.968 L 1354.5 976.781 L 1340.65 1001.79 L 1330.56 1012.83 L 1316.31 1020.1 L 1297.33 1021.17 L 1279.7 1014.05 L 1259.92 999.914 L 1249.29 983.511 L 1243.24 965.207 L 1239.88 937.088 L 1243.24 910.307 L 1251.04 891.603 L 1261.54 879.765 L 1275.94 871.425 L 1292.36 866.984 Z" style=""></path>
  <path class="m" d="M 805.025 863.753 L 823.188 863.487 L 841.216 867.525 L 854.537 876.141 L 865.569 891.879 L 871.758 904.119 L 874.45 920.131 L 874.991 936.006 L 871.758 965.207 L 866.777 983.629 L 854.802 1001.93 L 842.964 1012.43 L 831.126 1018.09 L 818.075 1020.1 L 804.082 1018.21 L 792.511 1014.05 L 779.864 1006.11 L 772.06 996.285 L 762.105 977.446 L 755.915 959.151 L 753.36 934.936 L 755.915 910.307 L 763.315 891.073 L 774.349 878.96 L 787.399 868.331 L 805.025 863.753 Z" style=""></path>
  <path class="h" d="M 1005.63 173.006 L 1112.73 172.334 L 1123.09 177.715 L 1128.48 185.923 L 1131.7 208.93 L 1133.58 238.664 L 1139.64 415.725 L 1139.64 470.754 L 1133.58 495.105 L 1036.17 501.16 L 993.523 501.16 L 975.222 495.105 L 981.273 318.045 L 985.312 235.031 L 988.543 206.777 L 993.126 187.537 L 999.442 177.85 L 1005.63 173.006 Z" style=""></path>
  <path class="n" d="M 1296.26 899.01 L 1315.49 903.175 L 1322.49 910.849 L 1334.87 930.22 L 1340.65 959.688 L 1335 984.444 L 1318.85 1005.71 L 1301.77 1006.24 L 1275.8 996.285 L 1261.54 971.797 L 1261.54 929.15 L 1273.78 904.659 L 1296.26 899.01 Z" style=""></path>
  <path class="n" d="M 801.256 894.432 L 817.134 894.708 L 834.489 900.622 L 852.788 925.112 L 853.869 946.098 L 852.788 967.758 L 846.864 983.769 L 834.489 999.249 L 804.082 1000.87 L 779.731 980.007 L 774.616 955.787 L 773.676 931.164 L 780.805 913.402 L 789.282 902.91 L 801.256 894.432 Z" style=""></path>
</svg>