<?xml version="1.0" encoding="utf-8"?>
<svg version="1.2" xmlns="http://www.w3.org/2000/svg" viewBox="0 0 2048 2048">
  <style>.a{fill:#1a3023}.b{fill:#193023}.c{fill:#1a3022}.d{fill:#1a3123}.e{fill:#1b3022}.f{fill:#cc7405}.g{fill:#222c19}.h{fill:#335941}.i{fill:#222b19}.j{fill:#222b18}.k{fill:#ca7305}.l{fill:#232b18}.m{fill:#222a17}.n{fill:#173024}</style>
  <path class="a" d="m1461.6 1482.1l9.9 1.4 32.8 16 36.1 20.3 24.6 17.4 14.8 10.1 21.4 16 19.6 15.9 13.2 10.2 19.7 15.9 11.5 10.2 13.1 10.2 24.6 21.7 11.5 11.6 24.6 21.8 11.5 11.6 16.4 15.9 14.8 16 16.4 17.4 14.8 16 18.1 20.3 16.4 20.3 13.1 17.4v4.3l-6.6-2.9-24.6-14.5-26.2-17.4-27.9-17.4-18.1-13-16.4-11.6-19.7-13.1-69-52.2-19.7-16-13.1-10.1-16.4-14.5-13.1-10.2v-2.9h-3.3v-2.9l-6.6-2.9-23-21.8-18-17.4-14.8-15.9-21.3-23.2-16.5-20.3-14.7-20.3-8.2-14.5z"/>
  <path class="a" d="m1968 574.5l1.9 3.8-33.6 24.3-41 28-27.9 18.7-29.8 18.6-44.7 26.2-41 22.4-63.4 33.6-63.3 29.9-35.4 14.9-37.3 15-61.5 20.5-46.6 11.2-20.5 3.8h-7.4l3.7-7.5 18.6-18.7 35.4-26.1 28-18.7 27.9-16.8 50.3-28 31.7-16.8 29.8-15 61.5-28 67.1-28 54-20.6 65.2-24.2z"/>
  <path class="a" d="m740.1 1428.1h1.9l-1.9 15-14.9 39.2-20.5 39.2-22.4 35.5-20.5 29.9-26.1 35.5-26 31.7-16.8 20.6-24.2 26.1-13.1 15-18.6 20.5-24.2 24.3-13.1 15-33.5 33.6-14.9 13.1-24.3 24.2-24.2 22.4-14.9 13.1-18.6 15v-5.6l18.6-33.7 11.2-18.6 14.9-24.3 20.5-33.6 18.6-28.1 24.3-35.4 22.3-31.8 20.5-28 24.2-33.6 24.3-29.9 16.7-20.6 20.5-22.4 13.1-14.9 27.9-29.9 14.9-15 14.9-13 20.5-18.7 18.7-15z"/>
  <path class="a" d="m1558.1 143.1l1.8 3.7-29.8 65.4-37.2 74.7-22.4 41.1-20.5 35.5-11.2 20.5-18.6 31.8-16.8 26.1-20.5 31.8-20.5 29.9-26.1 33.6-29.8 39.2-20.5 24.3-18.6 18.7-11.2 13-26.1 20.6-13 9.3-1.9-7.4 16.8-50.5 22.4-48.5 26-44.9 15-26.1 16.7-26.2 26.1-39.2 18.6-26.1 14.9-20.6 18.7-24.3 26.1-35.5 22.3-28 16.8-20.5 20.5-26.2 20.5-24.3 16.8-20.5 20.5-22.4 13-14.9z"/>
  <path class="a" d="m437 1009.9h65.2l46.6 3.7 39.1 5.6 14.9 3.8v3.7l-44.7 16.8-31.7 9.4-63.3 13-44.7 7.5-74.6 9.4-68.9 3.7h-158.4l-67.1-3.7-39.1-3.8v-3.7l67.1-16.8 67.1-13.1 76.4-13.1 65.2-9.3 93.1-9.4z"/>
  <path class="a" d="m1517.8 1184.2h38.9l59.3 8.7 50.7 10.6 71.1 19.2 84.6 28.1 30.5 12.2 40.6 15.8 35.6 15.7 55.8 26.3 28.8 14 32.1 17.5v3.5l-18.6-1.7-115.1-22.8-67.7-15.7-72.7-19.3-35.6-10.5-69.4-24.5-38.9-15.8-37.2-17.5-27.1-14-32.1-17.6-13.6-10.5z"/>
  <path class="a" d="m66.2 774.5h20.5l37.3 3.7 100.6 14.9 68.9 13.1 69 15 67 16.8 55.9 16.8 54.1 18.7 46.6 20.5 29.8 14.9 18.6 11.3 7.5 7.4-3.7 1.9h-52.2l-61.5-7.5-65.2-11.2-70.8-16.8-52.2-14.9-54.1-16.9-78.2-28-52.2-20.5-27.9-11.2-46.6-20.6-11.2-5.5z"/>
  <path class="b" d="m1090.4-0.8h1.9l1.8 20.6v181.2l-5.6 91.5-9.3 82.2-11.2 63.5-11.1 50.4-13.1 44.9-14.9 42.9-9.3 18.7-3.7 1.9-5.6-24.3-1.9-28v-91.6l5.6-67.2 9.3-71 11.2-65.4 20.5-106.4 13-57.9 18.7-78.5z"/>
  <path class="a" d="m1137.3 1653.4l5.9 5.2 13.4 21 16.4 32.9 17.8 47.3 13.4 47.3 11.9 48.7 10.4 52.5 10.4 65.8 6 44.6 2.9 39.5-2.9 2.6-16.4-36.8-8.9-23.7-10.4-26.2-20.8-55.2-16.4-52.6-10.4-32.9-11.9-47.3-8.9-49.9-3-26.3v-55.2z"/>
  <path class="b" d="M 332.014 259.319 C 332.211 259.002 338.398 263.551 338.339 263.698 L 345 268.2 L 365.5 283.2 L 374.562 290.222 L 378.964 293.668 L 384.2 298.1 L 402.8 314.9 L 421.4 329.9 L 449.4 356 L 464.3 369.1 L 482.9 387.8 L 497.9 400.8 L 527.7 430.7 L 540.7 445.7 L 572.4 477.4 L 589.2 498 L 602.2 511 L 619 531.6 L 643.2 561.5 L 671.1 598.8 L 697.2 638 L 717.7 677.3 L 721.4 688.5 L 714 686.6 L 686 667.9 L 663.7 651.1 L 639.5 632.4 L 615.2 610 L 600.3 597 L 544.4 540.9 L 531.4 526 L 514.6 507.3 L 497.9 486.8 L 475.5 460.6 L 456.8 436.3 L 430.8 402.7 L 404.7 367.2 L 384.2 339.2 L 363.7 309.3 L 341.3 273.8 L 333.9 262.6 L 332.014 259.319 Z"/>
  <path class="a" d="m613.4 1308.6l5.6 1.9-22.4 26.1-29.8 28-14.9 13.1-26.1 22.4-26.1 20.6-29.8 22.4-24.2 16.8-26.1 18.7-55.9 33.6-42.9 26.1-50.3 28.1-39.1 22.4-29.8 14.9-28 16.8-31.7 15-3.7-1.9 50.3-50.4 14.9-13.1 20.5-18.7 26.1-20.5 24.2-20.6 24.3-18.7 29.8-22.4 33.5-24.3 31.7-22.4 27.9-16.8 26.1-16.8 28-16.8 41-22.4 41-20.5 31.7-13.1z"/>
  <path class="a" d="m645.1 62.7l5.5 7.5 22.4 46.7 13 31.8 11.2 24.3 22.4 57.9 26.1 72.8 16.7 52.3 18.7 61.6 18.6 76.6 7.5 39.3 7.4 57.9 1.9 33.6-5.6-1.9-18.6-29.9-15-28-14.9-33.6-18.6-44.8-22.4-67.3-26-95.3-22.4-95.2-16.8-84.1-7.4-41.1-3.7-31.7z"/>
  <path class="a" d="m837 1486h3.7v33.7l-5.6 31.7-11.2 52.3-14.9 54.2-16.7 48.5-20.5 50.5-29.8 67.2-29.9 63.5-33.5 67.3-22.4 39.2-13 22.4-1.9-5.6 28-117.7 22.3-76.6 14.9-46.7 20.5-61.6 18.7-48.6 16.7-39.2 22.4-48.5 24.2-44.9 22.4-33.6z"/>
  <path class="a" d="m1544.3 1352.4l22.4 3.7 44.7 13.1 52.2 20.5 37.2 16.8 35.4 16.8 41 22.5 33.6 18.6 26 16.9 20.5 13 29.9 18.7 18.6 13.1 33.5 24.3 16.8 13 29.8 22.5 26.1 22.4 11.2 9.3-1.9 3.7-68.9-28-44.7-20.5-37.3-16.8-39.1-18.7-29.9-15-35.4-16.8-41-22.4-50.3-28-31.6-20.5-20.5-13.1-35.4-26.2-16.8-14.9-14.9-13.1z"/>
  <path class="a" d="m956.2 1514.1l5.6 5.6 3.7 33.6v89.6l-9.3 93.4-11.2 67.3-13 63.5-14.9 67.2-13 50.5-15 54.1-7.4 18.7h-1.9v-112.1l3.8-72.8 9.3-102.8 9.3-72.8 7.4-39.2 16.8-69.1 11.2-33.7 13-29.8z"/>
  <path class="a" d="m132.6 518.5l9.3 1.9 57.8 24.3 55.9 26.1 31.7 15 29.8 14.9 35.4 18.7 41 22.4 13 7.5 41 24.2 16.8 11.2 16.8 9.4 9.3 5.6 7.5 7.5 22.3 14.9 20.5 16.8 18.6 15 18.7 16.8 14.9 13 16.8 16.9v3.7l-22.4-5.6-54-20.6-55.9-26.1-29.9-15-39.1-20.5-35.4-20.5-82-52.3-18.6-13.1-31.7-22.4-31.7-24.3-24.2-18.7-31.7-26.1-11.2-9.4z"/>
  <path class="a" d="m542.6 1196.5h13l-9.3 9.4-14.9 13-33.5 22.5-35.5 20.5-41 22.4-42.8 20.6-55.9 24.3-29.8 11.1-50.3 18.7-69 22.4-57.7 16.9-33.6 9.3-5.6-1.9 13.1-11.2 27.9-16.8 33.6-20.5 26-15 29.9-16.8 41-22.4 59.6-29.9 48.4-20.5 46.6-18.7 48.5-15 42.8-13z"/>
  <path class="a" d="m1955.1 833.7h42.8l-5.5 3.8-48.5 18.6-70.8 22.5-63.4 18.6-72.6 16.8-70.8 13.1-57.8 7.5-55.9 3.7h-74.5l-3.7-3.7 46.5-22.4 41-15 55.9-14.9 48.5-11.2 82-15 81.9-11.2 76.4-7.4z"/>
  <path class="c" d="m1306.7 1584.8l7.4 3.3 26 23.2 13 13.2 25.9 29.8 24.1 33.1 22.2 33.1 26 43.1 14.8 24.8 20.4 38.1 20.4 39.7 24.1 49.6 24.1 56.3-1.8 3.3-26-28.1-16.7-21.5-25.9-33.1-22.3-28.2-16.7-23.2-24.1-31.4-18.5-24.8-27.8-43.1-18.5-29.8-22.3-41.3-18.5-43.1-7.4-24.8z"/>
  <path class="d" d="m1673.8 1009.7h137.9l72.7 3.7 76.4 7.5 67 9.3 11.2 1.9-5.6 3.7-67.1 9.3-95 9.4-61.5 3.7h-162.1l-52.2-3.7-57.7-7.5-31.7-7.5v-3.7l22.4-7.5 48.4-9.3 42.9-5.6z"/>
  <path class="c" d="m1837.6 428.9l5.6 1.8-14.9 13.1-9.4 11.2h-3.7l-3.7 7.5-29.8 28-20.5 16.8-20.5 18.7-20.5 16.8-24.2 20.5-20.5 15-22.4 16.8-20.5 14.9-33.5 22.4-31.7 20.6-24.2 14.9-46.6 26.2-59.6 28-13.1 5.6-5.6-1.9 22.4-28h3.7v-3.7l7.5-7.5h3.7v-3.7h3.7v-3.8l20.5-16.8 18.7-16.8 20.5-16.8 27.9-22.4 20.5-14.9 37.3-26.2 39.1-26.1 35.4-22.5 37.3-22.4 31.6-18.6 48.5-26.2z"/>
  <path class="a" d="m883.6 96.4l3.7 7.4 16.8 91.6 13 85.9 9.3 80.3 3.7 52.3v89.7l-5.5 57.9-3.8 7.4-13-35.4-11.2-48.6-7.5-52.3-7.4-67.3-3.7-69.1v-127l3.7-69.1z"/>
  <path class="e" d="m1310.3 124.4l1.8 5.6-9.3 41.1-20.5 78.4-16.8 57.9-18.6 54.2-13 35.5-13.1 33.6-24.2 54.2-16.8 31.7-13 20.6-16.8 22.4-1.8-5.6 7.4-44.8 14.9-56.1 26.1-84 26.1-67.3 41-93.4 18.6-35.4 16.8-31.8z"/>
  <path class="e" d="m1727.6 294.4l1.9 3.7-9.3 9.3-18.6 26.2-26.1 33.6-20.5 24.3-22.4 26.1-41 44.9-33.5 33.6-14.9 13.1-22.4 20.5-20.5 16.8-24.2 20.6-35.4 26.1-20.5 13.1-9.3 3.7 7.4-14.9 18.7-26.2 20.5-26.1 52.1-56 7.5-9.4 14.9-13.1 39.1-39.2 14.9-13.1 29.8-28 20.5-16.8 18.7-16.8 20.5-16.8 27.9-22.4 20.5-15z"/>
  <path class="e" d="M 264.851 406.962 L 279.061 416.196 L 315.3 437.5 L 354.4 463.6 L 384.2 484.2 L 412.2 504.7 L 434.5 521.6 L 453.2 536.5 L 479.3 557 L 503.5 577.6 L 525.9 598.1 L 550.1 620.6 L 568.7 639.2 L 570.82 641.339 L 572.4 643 L 591.1 667.2 L 598.5 682.2 L 589.2 678.4 L 553.8 657.9 L 514.7 633.6 L 488.6 614.9 L 456.9 590.7 L 427.1 568.2 L 408.5 551.4 L 388 534.6 L 369.3 517.8 L 354.4 504.7 L 298.5 448.7 L 272.98 418.422 L 267.247 410.899 L 264.851 406.962 Z"/>
  <path class="e" d="m561.2 1478.6h3.7l-3.7 11.2-11.2 18.7-14.9 22.4-26.1 33.6-29.8 31.7-54 54.2-20.5 16.8-20.5 20.6-20.5 16.8-16.8 14.9-24.2 18.7-28 20.5-3.7-1.8 41-56.1 14.9-18.6 26.1-31.8 24.2-26.1 13.1-15 29.8-31.7 35.4-35.5 20.5-16.8 18.6-16.8 39.1-26.2z"/>
  <path class="f" d="m935.4 800.1h185.6l122.3 13.6 108.6 27.2 72.4 27.2 13.6 22.7 22.6 90.8 36.2 77.1 31.7 40.9 31.7 36.3 22.7 18.1-4.6 13.6h-45.2l-36.3-4.5 13.6 40.8 22.7 59 9 54.5-4.5 36.3-22.7-9.1-22.6-13.6h-18.1l-18.1 81.7-22.6 54.4-36.2 54.4-45.3 40.9h-13.6l-13.6-68.1-9-9-36.2 72.5-36.2 50-40.8 36.3-27.1 9-9.1-72.6-4.5-9-31.7 59-31.7 40.8-49.8 45.4-18.1 9-22.6-4.5-58.9-54.4-31.7-40.9-27.1-49.9-9.1-4.5-4.5 36.3v40.8l-13.6 4.5-36.2-27.2-40.7-40.8-36.3-63.6-13.5-40.8-18.1 18.2-9.1 68-27.2-13.6-31.6-31.8-36.3-54.4-22.6-63.5-18.1-77.2-27.2 9.1-18.1 13.6-18.1-4.5v-36.3l9.1-49.9 27.1-63.6 4.6-27.2h-81.5l4.5-18.1 36.2-36.3 36.2-50 40.8-77.1 18.1-63.5 13.6-45.4 27.1-18.1 49.8-18.2 117.7-27.2z"/>
  <path class="g" d="m656.2 261.4l30.3-5.8-3.5 34.5-1.1 29-2.8 27.2 4.6 34.3 6.5 29.6 14.4 26.9 36.2 31.7 22.6-9.1 49.8-36.3 63.4-31.7 76.9-22.7 22-13.5 22.4-13.1 96-0.6 22.6 13.6 27.2 18.1 58.8 18.2 54.3 22.7 49.8 31.7 22.7 18.2 22.6-4.6 31.7-27.2 15.2-37 9.9-37.9 8.4-39.4 1.2-25.5-7.3-37.6 36.3 18.1 31.4 22.2 30.4 26.1 18.5 26.4 18.9 30.2 9.1 40.8 4.5 63.5-9 54.5-31.7 59-40.8 40.8-13.5 9.1 13.5 54.4 9.1 18.2h9l18.1 45.4v81.6l-13.5 27.3 4.5 36.3 31.7 95.3 27.1 45.3 36.3 45.4 54.3 45.4 9 13.6-4.5 27.2-22.6 18.2-27.2 13.6-27.1 4.5 18.1 95.3v59l-13.6 49.9-18.1 9.1-36.2-31.8h-9.1l-27.2 72.6-36.2 59-40.7 49.9-54.3 40.9-27.2 13.6-18.1-4.5v-9.1l-22.6 4.5-22.7 27.2h-9v9.1l-63.4 45.4-18.1 9.1h-27.2l-13.5-9.1-45.3 40.8-49.8 27.3-31.7-9.1-40.7-27.2-36.2-31.8-9.1 9.1-31.7-4.6-45.2-27.2-58.9-49.9-13.6-13.6h-9l-13.6 13.6-40.7-13.6-45.3-36.3-45.3-45.4-40.7-63.5-27.2-77.2h-18.1l-16 17.3-15.7 15.8-13.5-19.4-9.1-36.3v-90.8l18.1-72.6-40.7-4.5-36.2-22.7-9.1-22.7 18.1-27.2 58.9-54.5 40.7-59 22.6-49.9 22.7-68.1v-31.7l-13.6-27.3v-68l13.6-45.4 22.6-22.7 18.1-59-18.1-18.1-36.2-31.8-27.2-45.4-13.6-40.8v-77.1l13.6-59 18.1-36.3 36.2-45.4 32-22.8zm297.4 538.6l-122.2 13.6-117.7 27.3-67.9 27.2-13.6 18.1-22.6 86.3-36.2 77.1-36.3 49.9-40.7 45.4-9 9.1v13.6h81.4l-9 36.3-27.2 72.6-4.5 31.8v36.2l18.1 4.6 36.2-22.7h9.1l22.6 90.7 22.6 59 40.8 54.5 36.2 31.7 13.6 4.6 9-68.1 18.1-18.1 13.6 40.8 27.2 49.9 40.7 45.4 36.2 31.8 18.1 4.5 4.6-9.1v-45.4l4.5-27.2 13.6 13.6 31.6 54.5 40.8 45.4 40.7 36.3 22.7 4.5 27.1-18.1 54.3-50 31.7-49.9 18.1-36.3 9.1 27.2 4.5 54.5 27.2-9.1 49.8-45.4 40.7-63.5 22.6-49.9 9.1 9.1 13.6 68 18.1-4.5 45.2-40.8 36.3-59 22.6-59 13.6-68.1 22.6 4.6 31.7 18.1h9l4.6-36.3-13.6-68-31.7-77.2v-9.1l36.2 4.6h45.3v-18.2l-36.2-31.7-36.2-45.4-40.8-77.2-22.6-86.2-13.6-36.3-36.2-18.1-90.5-27.2-58.9-13.7-122.2-13.6z"/>
  <path class="h" d="m1012.4 659.4h58.8l158.5 13.6 117.7 27.2 95 36.3 27.2 18.2 4.5 22.7v54.4l-9 4.6-135.8-45.4-90.6-18.2-86-9h-226.3l-131.3 18.1-104.1 27.2-58.8 22.7-18.2 4.6v-72.6l9.1-18.2 40.7-18.1 67.9-22.7 104.2-27.2 72.4-9.1z"/>
  <path class="h" d="m1134.6 414.4l49.8 13.6 54.3 22.7 49.8 31.7 54.3 54.5 40.8 49.9 31.7 68.1 4.5 31.7-135.8-36.3-140.3-22.7-4.6-4.5-4.5-122.5z"/>
  <path class="h" d="m930.9 414.4h22.6l-9 213.2-140.3 22.7-122.3 31.8-18.1 4.5 9.1-40.8 36.2-68.1 36.2-45.4 31.7-31.7 54.3-40.9 31.7-18.1 49.8-22.7z"/>
  <path class="i" d="m745.3 1480.7h9.1l36.2 77.1 31.7 40.9 36.2 36.3 22.6 13.6 9.1-4.5v-45.4l9-27.2 13.6 4.5 36.2 63.5 40.8 45.4 45.2 36.3 22.7-4.5 49.8-40.9h13.5l9.1-13.6h9v-9.1h9.1v-13.6l27.2-4.5 4.5-13.6 13.6 40.8 13.5 13.6-22.6 18.2-18.1 4.5h-36.2v9.1l-9.1 4.5-4.5 18.2-31.7 27.2-36.2 18.2-31.7-9.1-40.7-27.2-36.2-31.8-9.1 9.1-31.7-4.6-45.2-27.2-58.9-49.9-13.6-13.6h-9l-13.6 13.6-40.7-13.6-40.8-31.8v-18.1h-9v-36.3l36.2 27.2v9.1h13.6l9-45.4 9.1-36.3z"/>
  <path class="j" d="m1016.9 1036h54.3l36.3 13.6 13.5 18.2-4.5 27.2-22.6 22.7-27.2 18.2 4.5 31.7 4.6 13.6 40.7 13.6h36.2l22.7-18.1 18.1-31.8h22.6l9 18.2-13.5 40.8-31.7 27.2-22.7 9.1h-49.7l-36.3-13.6-18.1-13.6-22.6 4.5-36.2 18.2-18.1 4.5h-31.7l-40.7-13.6-27.2-22.7-13.6-22.7v-27.2l4.5-9.1 22.7 4.6 27.1 36.3 22.7 9h36.2l36.2-22.6 4.5-36.3-45.2-31.8-9.1-18.2 4.5-31.7 27.2-13.6z"/>
  <path class="k" d="m626 321.7l18.4-15.3-0.7 34.1 0.6 26.9 4.7 38.8 10.3 30.9 18.1 27.2 9.6 10.5 13.1 12.2 18.1 13.6-13 19.8-30.7 44.9-24.2 39.7-3.6 5.4-14.5-10-22.7-18.1-31.7-54.5-9-31.7v-68.1l18.1-54.5 23.1-33.1z"/>
  <path class="k" d="m1451.5 323.6l15.8 13.7 29.4 36.2 18.1 54.5v72.6l-22.6 54.4-31.7 40.9-18.1 13.6-6.7 4.1-2.3-4.1-54.4-86.2-12.6-22.9 30.8-27 25.3-38.5 21.7-55.6z"/>
  <path class="l" d="m1216.4 899.5l13.8 0.1 13.1 4.8 9.7 9.2 8.4 13.5 4 17.6 0.5 18.7-3.3 17.7-10.3 18.6-7.5 8.2-10.6 5.4-14.1 0.8-13.1-5.3-14.7-10.5-7.9-12.2-4.5-13.6-2.5-20.9 2.5-19.9 5.8-13.9 7.8-8.8 10.7-6.2z"/>
  <path class="m" d="m854.2 897.1l13.5-0.2 13.4 3 9.9 6.4 8.2 11.7 4.6 9.1 2 11.9 0.4 11.8-2.4 21.7-3.7 13.7-8.9 13.6-8.8 7.8-8.8 4.2-9.7 1.5-10.4-1.4-8.6-3.1-9.4-5.9-5.8-7.3-7.4-14-4.6-13.6-1.9-18 1.9-18.3 5.5-14.3 8.2-9 9.7-7.9z"/>
  <path class="h" d="m1003.3 383.7l79.6-0.5 7.7 4 4 6.1 2.4 17.1 1.4 22.1 4.5 131.6v40.9l-4.5 18.1-72.4 4.5h-31.7l-13.6-4.5 4.5-131.6 3-61.7 2.4-21 3.4-14.3 4.7-7.2z"/>
  <path class="n" d="m1219.3 923.3l14.3 3.1 5.2 5.7 9.2 14.4 4.3 21.9-4.2 18.4-12 15.8-12.7 0.4-19.3-7.4-10.6-18.2v-31.7l9.1-18.2z"/>
  <path class="n" d="m851.4 919.9l11.8 0.2 12.9 4.4 13.6 18.2 0.8 15.6-0.8 16.1-4.4 11.9-9.2 11.5-22.6 1.2-18.1-15.5-3.8-18-0.7-18.3 5.3-13.2 6.3-7.8z"/>
</svg>